<svg width="1673" height="865" viewBox="0 0 1673 865" fill="none" xmlns="http://www.w3.org/2000/svg">
<rect x="22" y="454" width="1160" height="47" fill="#E7E7E7"/>
<rect x="1184" y="178" width="468" height="47" fill="#E7E7E7"/>
<rect x="20" y="81" width="1630" height="54" fill="black"/>
<rect x="1581" y="81" width="69" height="54" fill="white"/>
<rect x="719" y="316" width="232" height="48" fill="#D2FFB6"/>
<rect x="952" y="589" width="232" height="48" fill="#F7FF99"/>
<rect x="20" y="178" width="1630" height="139" stroke="black" stroke-width="3"/>
<rect x="20" y="452" width="1630" height="137" stroke="black" stroke-width="3"/>
<rect x="20" y="589" width="1630" height="137" stroke="black" stroke-width="3"/>
<rect x="20" y="726" width="1630" height="137" stroke="black" stroke-width="3"/>
<rect x="20" y="863" width="728" height="233" transform="rotate(-90 20 863)" stroke="black" stroke-width="3"/>
<rect x="253" y="863" width="728" height="233" transform="rotate(-90 253 863)" stroke="black" stroke-width="3"/>
<rect x="486" y="863" width="728" height="233" transform="rotate(-90 486 863)" stroke="black" stroke-width="3"/>
<rect x="719" y="863" width="728" height="232" transform="rotate(-90 719 863)" stroke="black" stroke-width="3"/>
<rect x="951" y="863" width="728" height="233" transform="rotate(-90 951 863)" stroke="black" stroke-width="3"/>
<rect x="1184" y="863" width="728" height="233" transform="rotate(-90 1184 863)" stroke="black" stroke-width="3"/>
<rect x="1417" y="863" width="728" height="233" transform="rotate(-90 1417 863)" stroke="black" stroke-width="3"/>
<path d="M1608 98L1622 108.5L1608 119" stroke="black" stroke-width="5"/>
<path d="M11.3 46.1L24.55 32.25C25.4833 31.25 26.2333 30.3667 26.8 29.6C27.4 28.8 27.8333 28.05 28.1 27.35C28.3667 26.6167 28.5 25.8833 28.5 25.15C28.5 23.6833 28.0167 22.5333 27.05 21.7C26.1167 20.8667 24.9 20.45 23.4 20.45C21.8667 20.45 20.5 20.85 19.3 21.65C18.1333 22.45 17.0333 23.7167 16 25.45L11.35 21.5C12.75 19.1333 14.4833 17.35 16.55 16.15C18.65 14.9167 21.05 14.3 23.75 14.3C26.05 14.3 28.05 14.75 29.75 15.65C31.4833 16.55 32.8167 17.8 33.75 19.4C34.6833 21 35.15 22.8667 35.15 25C35.15 26.4333 34.9667 27.7333 34.6 28.9C34.2667 30.0667 33.6833 31.2333 32.85 32.4C32.05 33.5333 30.9333 34.8167 29.5 36.25L19.85 46.1H11.3ZM11.3 50V46.1L17.1 44.1H35.9V50H11.3ZM51.7367 50.5C48.9701 50.5 46.4701 49.75 44.2367 48.25C42.0034 46.75 40.2201 44.6333 38.8867 41.9C37.5867 39.1667 36.9367 35.9833 36.9367 32.35C36.9367 28.7167 37.5867 25.55 38.8867 22.85C40.1867 20.15 41.9367 18.05 44.1367 16.55C46.3701 15.05 48.8534 14.3 51.5867 14.3C54.3867 14.3 56.8867 15.05 59.0867 16.55C61.3201 18.05 63.0867 20.1667 64.3867 22.9C65.6867 25.6 66.3367 28.7833 66.3367 32.45C66.3367 36.0833 65.6867 39.2667 64.3867 42C63.0867 44.7 61.3367 46.8 59.1367 48.3C56.9367 49.7667 54.4701 50.5 51.7367 50.5ZM51.6367 44.35C53.2367 44.35 54.6201 43.9 55.7867 43C56.9534 42.1 57.8534 40.7667 58.4867 39C59.1534 37.2333 59.4867 35.0333 59.4867 32.4C59.4867 29.7667 59.1534 27.5667 58.4867 25.8C57.8534 24.0333 56.9367 22.7167 55.7367 21.85C54.5701 20.95 53.1867 20.5 51.5867 20.5C50.0201 20.5 48.6534 20.95 47.4867 21.85C46.3201 22.7167 45.4034 24.0333 44.7367 25.8C44.1034 27.5333 43.7867 29.7167 43.7867 32.35C43.7867 35.0167 44.1034 37.2333 44.7367 39C45.4034 40.7667 46.3201 42.1 47.4867 43C48.6534 43.9 50.0367 44.35 51.6367 44.35ZM66.9445 46.1L80.1945 32.25C81.1279 31.25 81.8779 30.3667 82.4445 29.6C83.0445 28.8 83.4779 28.05 83.7445 27.35C84.0112 26.6167 84.1445 25.8833 84.1445 25.15C84.1445 23.6833 83.6612 22.5333 82.6945 21.7C81.7612 20.8667 80.5445 20.45 79.0445 20.45C77.5112 20.45 76.1445 20.85 74.9445 21.65C73.7779 22.45 72.6779 23.7167 71.6445 25.45L66.9945 21.5C68.3945 19.1333 70.1279 17.35 72.1945 16.15C74.2945 14.9167 76.6945 14.3 79.3945 14.3C81.6945 14.3 83.6945 14.75 85.3945 15.65C87.1279 16.55 88.4612 17.8 89.3945 19.4C90.3279 21 90.7945 22.8667 90.7945 25C90.7945 26.4333 90.6112 27.7333 90.2445 28.9C89.9112 30.0667 89.3279 31.2333 88.4945 32.4C87.6945 33.5333 86.5779 34.8167 85.1445 36.25L75.4945 46.1H66.9445ZM66.9445 50V46.1L72.7445 44.1H91.5445V50H66.9445ZM92.0313 37.6L104.031 14.85H111.531L99.2313 37.6H92.0313ZM92.0313 41.6V37.6L94.5313 35.65H119.731V41.6H92.0313ZM108.631 50V27.6H115.331V50H108.631ZM146.788 50.5C143.955 50.5 141.522 50.0167 139.488 49.05C137.488 48.0833 135.672 46.6333 134.038 44.7L138.538 40.2C139.572 41.5667 140.772 42.6333 142.138 43.4C143.505 44.1333 145.172 44.5 147.138 44.5C148.905 44.5 150.305 44.15 151.338 43.45C152.405 42.75 152.938 41.7833 152.938 40.55C152.938 39.4833 152.638 38.6167 152.038 37.95C151.438 37.2833 150.638 36.7167 149.638 36.25C148.672 35.7833 147.588 35.3667 146.388 35C145.222 34.6 144.038 34.15 142.838 33.65C141.672 33.15 140.588 32.5333 139.588 31.8C138.622 31.0333 137.838 30.0667 137.238 28.9C136.638 27.7 136.338 26.2 136.338 24.4C136.338 22.2667 136.855 20.45 137.888 18.95C138.922 17.45 140.338 16.3 142.138 15.5C143.938 14.7 145.972 14.3 148.238 14.3C150.638 14.3 152.805 14.75 154.738 15.65C156.672 16.55 158.255 17.7167 159.488 19.15L154.988 23.65C153.955 22.5167 152.888 21.6833 151.788 21.15C150.722 20.6167 149.505 20.35 148.138 20.35C146.572 20.35 145.338 20.65 144.438 21.25C143.538 21.85 143.088 22.7167 143.088 23.85C143.088 24.8167 143.388 25.6 143.988 26.2C144.588 26.8 145.372 27.3167 146.338 27.75C147.338 28.1833 148.422 28.6 149.588 29C150.788 29.4 151.972 29.85 153.138 30.35C154.338 30.85 155.422 31.5 156.388 32.3C157.388 33.1 158.188 34.1333 158.788 35.4C159.388 36.6333 159.688 38.1667 159.688 40C159.688 43.2667 158.538 45.8333 156.238 47.7C153.938 49.5667 150.788 50.5 146.788 50.5ZM172.155 50.5C170.022 50.5 168.122 50.05 166.455 49.15C164.822 48.25 163.538 47 162.605 45.4C161.672 43.8 161.205 41.95 161.205 39.85V25.85H167.805V39.7C167.805 40.7 167.972 41.5667 168.305 42.3C168.638 43 169.138 43.5333 169.805 43.9C170.472 44.2667 171.255 44.45 172.155 44.45C173.522 44.45 174.588 44.0333 175.355 43.2C176.122 42.3667 176.505 41.2 176.505 39.7V25.85H183.055V39.85C183.055 41.9833 182.588 43.85 181.655 45.45C180.755 47.05 179.472 48.3 177.805 49.2C176.172 50.0667 174.288 50.5 172.155 50.5ZM185.771 50V25.85H192.321V50H185.771ZM201.521 50V35.75C201.521 34.35 201.071 33.2667 200.171 32.5C199.304 31.7 198.221 31.3 196.921 31.3C196.054 31.3 195.271 31.4833 194.571 31.85C193.871 32.1833 193.321 32.6833 192.921 33.35C192.521 34.0167 192.321 34.8167 192.321 35.75L189.771 34.5C189.771 32.6333 190.171 31.0167 190.971 29.65C191.804 28.2833 192.921 27.2333 194.321 26.5C195.721 25.7333 197.304 25.35 199.071 25.35C200.738 25.35 202.254 25.7333 203.621 26.5C204.988 27.2333 206.071 28.2833 206.871 29.65C207.671 30.9833 208.071 32.6 208.071 34.5V50H201.521ZM217.271 50V35.75C217.271 34.35 216.821 33.2667 215.921 32.5C215.054 31.7 213.971 31.3 212.671 31.3C211.838 31.3 211.054 31.4833 210.321 31.85C209.621 32.1833 209.071 32.6833 208.671 33.35C208.271 34.0167 208.071 34.8167 208.071 35.75L204.321 34.85C204.454 32.9167 204.971 31.25 205.871 29.85C206.771 28.4167 207.954 27.3167 209.421 26.55C210.888 25.75 212.521 25.35 214.321 25.35C216.121 25.35 217.738 25.7333 219.171 26.5C220.604 27.2333 221.738 28.3 222.571 29.7C223.404 31.1 223.821 32.7667 223.821 34.7V50H217.271ZM226.63 50V25.85H233.18V50H226.63ZM242.38 50V35.75C242.38 34.35 241.93 33.2667 241.03 32.5C240.164 31.7 239.08 31.3 237.78 31.3C236.914 31.3 236.13 31.4833 235.43 31.85C234.73 32.1833 234.18 32.6833 233.78 33.35C233.38 34.0167 233.18 34.8167 233.18 35.75L230.63 34.5C230.63 32.6333 231.03 31.0167 231.83 29.65C232.664 28.2833 233.78 27.2333 235.18 26.5C236.58 25.7333 238.164 25.35 239.93 25.35C241.597 25.35 243.114 25.7333 244.48 26.5C245.847 27.2333 246.93 28.2833 247.73 29.65C248.53 30.9833 248.93 32.6 248.93 34.5V50H242.38ZM258.13 50V35.75C258.13 34.35 257.68 33.2667 256.78 32.5C255.914 31.7 254.83 31.3 253.53 31.3C252.697 31.3 251.914 31.4833 251.18 31.85C250.48 32.1833 249.93 32.6833 249.53 33.35C249.13 34.0167 248.93 34.8167 248.93 35.75L245.18 34.85C245.314 32.9167 245.83 31.25 246.73 29.85C247.63 28.4167 248.814 27.3167 250.28 26.55C251.747 25.75 253.38 25.35 255.18 25.35C256.98 25.35 258.597 25.7333 260.03 26.5C261.464 27.2333 262.597 28.3 263.43 29.7C264.264 31.1 264.68 32.7667 264.68 34.7V50H258.13ZM279.04 50.5C276.507 50.5 274.257 49.9667 272.29 48.9C270.323 47.8 268.757 46.3 267.59 44.4C266.457 42.5 265.89 40.3333 265.89 37.9C265.89 35.5 266.44 33.3667 267.54 31.5C268.673 29.6 270.207 28.1 272.14 27C274.073 25.8667 276.223 25.3 278.59 25.3C280.923 25.3 282.973 25.8333 284.74 26.9C286.54 27.9333 287.94 29.3667 288.94 31.2C289.973 33 290.49 35.05 290.49 37.35C290.49 37.7833 290.457 38.2333 290.39 38.7C290.357 39.1333 290.273 39.6333 290.14 40.2L269.84 40.25V35.35L287.09 35.3L284.44 37.35C284.373 35.9167 284.107 34.7167 283.64 33.75C283.207 32.7833 282.557 32.05 281.69 31.55C280.857 31.0167 279.823 30.75 278.59 30.75C277.29 30.75 276.157 31.05 275.19 31.65C274.223 32.2167 273.473 33.0333 272.94 34.1C272.44 35.1333 272.19 36.3667 272.19 37.8C272.19 39.2667 272.457 40.55 272.99 41.65C273.557 42.7167 274.357 43.55 275.39 44.15C276.423 44.7167 277.623 45 278.99 45C280.223 45 281.34 44.8 282.34 44.4C283.34 43.9667 284.207 43.3333 284.94 42.5L288.79 46.35C287.623 47.7167 286.19 48.75 284.49 49.45C282.823 50.15 281.007 50.5 279.04 50.5ZM292.041 50V25.85H298.591V50H292.041ZM298.591 36.65L296.041 34.95C296.341 31.9833 297.207 29.65 298.641 27.95C300.074 26.2167 302.141 25.35 304.841 25.35C306.007 25.35 307.057 25.55 307.991 25.95C308.924 26.3167 309.774 26.9333 310.541 27.8L306.441 32.5C306.074 32.1 305.624 31.8 305.091 31.6C304.591 31.4 304.007 31.3 303.341 31.3C301.941 31.3 300.791 31.75 299.891 32.65C299.024 33.5167 298.591 34.85 298.591 36.65ZM335.486 50.5C332.919 50.5 330.536 50.05 328.336 49.15C326.136 48.2167 324.203 46.9333 322.536 45.3C320.903 43.6333 319.636 41.7 318.736 39.5C317.869 37.3 317.436 34.9333 317.436 32.4C317.436 29.8667 317.869 27.5 318.736 25.3C319.636 23.1 320.903 21.1833 322.536 19.55C324.203 17.9167 326.119 16.6333 328.286 15.7C330.486 14.7667 332.886 14.3 335.486 14.3C338.286 14.3 340.753 14.7667 342.886 15.7C345.019 16.6 346.903 17.85 348.536 19.45L343.936 24.05C342.969 22.9833 341.786 22.15 340.386 21.55C338.986 20.95 337.353 20.65 335.486 20.65C333.853 20.65 332.353 20.9333 330.986 21.5C329.653 22.0333 328.486 22.8333 327.486 23.9C326.486 24.9333 325.719 26.1833 325.186 27.65C324.653 29.0833 324.386 30.6667 324.386 32.4C324.386 34.1667 324.653 35.7667 325.186 37.2C325.719 38.6333 326.486 39.8833 327.486 40.95C328.486 41.9833 329.653 42.7833 330.986 43.35C332.353 43.9167 333.853 44.2 335.486 44.2C337.453 44.2 339.136 43.9 340.536 43.3C341.969 42.7 343.169 41.85 344.136 40.75L348.736 45.35C347.103 46.9833 345.203 48.25 343.036 49.15C340.869 50.05 338.353 50.5 335.486 50.5ZM359.777 50.5C357.577 50.5 355.594 49.95 353.827 48.85C352.061 47.75 350.677 46.25 349.677 44.35C348.677 42.45 348.177 40.3167 348.177 37.95C348.177 35.55 348.677 33.4 349.677 31.5C350.677 29.6 352.061 28.1 353.827 27C355.594 25.9 357.577 25.35 359.777 25.35C361.511 25.35 363.061 25.7 364.427 26.4C365.794 27.1 366.877 28.0833 367.677 29.35C368.511 30.5833 368.961 31.9833 369.027 33.55V42.25C368.961 43.85 368.511 45.2667 367.677 46.5C366.877 47.7333 365.794 48.7167 364.427 49.45C363.061 50.15 361.511 50.5 359.777 50.5ZM360.977 44.45C362.811 44.45 364.294 43.85 365.427 42.65C366.561 41.4167 367.127 39.8333 367.127 37.9C367.127 36.6333 366.861 35.5167 366.327 34.55C365.827 33.55 365.111 32.7833 364.177 32.25C363.277 31.6833 362.211 31.4 360.977 31.4C359.777 31.4 358.711 31.6833 357.777 32.25C356.877 32.7833 356.161 33.55 355.627 34.55C355.127 35.5167 354.877 36.6333 354.877 37.9C354.877 39.2 355.127 40.35 355.627 41.35C356.161 42.3167 356.877 43.0833 357.777 43.65C358.711 44.1833 359.777 44.45 360.977 44.45ZM366.777 50V43.5L367.827 37.6L366.777 31.8V25.85H373.277V50H366.777ZM376.572 50V13.85H383.122V50H376.572ZM397.975 50.5C395.442 50.5 393.192 49.9667 391.225 48.9C389.259 47.8 387.692 46.3 386.525 44.4C385.392 42.5 384.825 40.3333 384.825 37.9C384.825 35.5 385.375 33.3667 386.475 31.5C387.609 29.6 389.142 28.1 391.075 27C393.009 25.8667 395.159 25.3 397.525 25.3C399.859 25.3 401.909 25.8333 403.675 26.9C405.475 27.9333 406.875 29.3667 407.875 31.2C408.909 33 409.425 35.05 409.425 37.35C409.425 37.7833 409.392 38.2333 409.325 38.7C409.292 39.1333 409.209 39.6333 409.075 40.2L388.775 40.25V35.35L406.025 35.3L403.375 37.35C403.309 35.9167 403.042 34.7167 402.575 33.75C402.142 32.7833 401.492 32.05 400.625 31.55C399.792 31.0167 398.759 30.75 397.525 30.75C396.225 30.75 395.092 31.05 394.125 31.65C393.159 32.2167 392.409 33.0333 391.875 34.1C391.375 35.1333 391.125 36.3667 391.125 37.8C391.125 39.2667 391.392 40.55 391.925 41.65C392.492 42.7167 393.292 43.55 394.325 44.15C395.359 44.7167 396.559 45 397.925 45C399.159 45 400.275 44.8 401.275 44.4C402.275 43.9667 403.142 43.3333 403.875 42.5L407.725 46.35C406.559 47.7167 405.125 48.75 403.425 49.45C401.759 50.15 399.942 50.5 397.975 50.5ZM427.226 50V36.15C427.226 34.7167 426.776 33.55 425.876 32.65C424.976 31.75 423.81 31.3 422.376 31.3C421.443 31.3 420.61 31.5 419.876 31.9C419.143 32.3 418.56 32.8667 418.126 33.6C417.726 34.3333 417.526 35.1833 417.526 36.15L414.976 34.85C414.976 32.95 415.376 31.3 416.176 29.9C417.01 28.4667 418.143 27.35 419.576 26.55C421.043 25.75 422.693 25.35 424.526 25.35C426.293 25.35 427.876 25.8 429.276 26.7C430.676 27.5667 431.776 28.7167 432.576 30.15C433.376 31.55 433.776 33.0667 433.776 34.7V50H427.226ZM410.976 50V25.85H417.526V50H410.976ZM446.752 50.5C444.519 50.5 442.519 49.95 440.752 48.85C438.986 47.75 437.586 46.25 436.552 44.35C435.552 42.45 435.052 40.3167 435.052 37.95C435.052 35.55 435.552 33.4 436.552 31.5C437.586 29.6 438.969 28.1 440.702 27C442.469 25.9 444.486 25.35 446.752 25.35C448.486 25.35 450.036 25.7 451.402 26.4C452.802 27.1 453.919 28.0833 454.752 29.35C455.619 30.5833 456.086 31.9833 456.152 33.55V42.15C456.086 43.7167 455.636 45.1333 454.802 46.4C453.969 47.6667 452.852 48.6667 451.452 49.4C450.052 50.1333 448.486 50.5 446.752 50.5ZM447.852 44.45C449.086 44.45 450.152 44.1833 451.052 43.65C451.986 43.0833 452.702 42.3167 453.202 41.35C453.736 40.35 454.002 39.2 454.002 37.9C454.002 36.6333 453.736 35.5167 453.202 34.55C452.702 33.55 451.986 32.7833 451.052 32.25C450.152 31.6833 449.102 31.4 447.902 31.4C446.669 31.4 445.586 31.6833 444.652 32.25C443.752 32.8167 443.036 33.5833 442.502 34.55C442.002 35.5167 441.752 36.6333 441.752 37.9C441.752 39.2 442.002 40.35 442.502 41.35C443.036 42.3167 443.769 43.0833 444.702 43.65C445.636 44.1833 446.686 44.45 447.852 44.45ZM460.152 50H453.652V43.5L454.702 37.6L453.602 31.8V13.85H460.152V50ZM474.997 50.5C472.464 50.5 470.214 49.9667 468.247 48.9C466.28 47.8 464.714 46.3 463.547 44.4C462.414 42.5 461.847 40.3333 461.847 37.9C461.847 35.5 462.397 33.3667 463.497 31.5C464.63 29.6 466.164 28.1 468.097 27C470.03 25.8667 472.18 25.3 474.547 25.3C476.88 25.3 478.93 25.8333 480.697 26.9C482.497 27.9333 483.897 29.3667 484.897 31.2C485.93 33 486.447 35.05 486.447 37.35C486.447 37.7833 486.414 38.2333 486.347 38.7C486.314 39.1333 486.23 39.6333 486.097 40.2L465.797 40.25V35.35L483.047 35.3L480.397 37.35C480.33 35.9167 480.064 34.7167 479.597 33.75C479.164 32.7833 478.514 32.05 477.647 31.55C476.814 31.0167 475.78 30.75 474.547 30.75C473.247 30.75 472.114 31.05 471.147 31.65C470.18 32.2167 469.43 33.0333 468.897 34.1C468.397 35.1333 468.147 36.3667 468.147 37.8C468.147 39.2667 468.414 40.55 468.947 41.65C469.514 42.7167 470.314 43.55 471.347 44.15C472.38 44.7167 473.58 45 474.947 45C476.18 45 477.297 44.8 478.297 44.4C479.297 43.9667 480.164 43.3333 480.897 42.5L484.747 46.35C483.58 47.7167 482.147 48.75 480.447 49.45C478.78 50.15 476.964 50.5 474.997 50.5ZM487.998 50V25.85H494.548V50H487.998ZM494.548 36.65L491.998 34.95C492.298 31.9833 493.164 29.65 494.598 27.95C496.031 26.2167 498.098 25.35 500.798 25.35C501.964 25.35 503.014 25.55 503.948 25.95C504.881 26.3167 505.731 26.9333 506.498 27.8L502.398 32.5C502.031 32.1 501.581 31.8 501.048 31.6C500.548 31.4 499.964 31.3 499.298 31.3C497.898 31.3 496.748 31.75 495.848 32.65C494.981 33.5167 494.548 34.85 494.548 36.65Z" fill="black"/>
<path d="M826.1 119.25C824.9 119.25 823.817 118.983 822.85 118.45C821.9 117.9 821.142 117.167 820.575 116.25C820.025 115.317 819.75 114.283 819.75 113.15C819.75 111.6 820.283 110.042 821.35 108.475L826.225 101.425H830.125L824.8 108.875L823.55 109.225C823.733 108.842 823.95 108.508 824.2 108.225C824.467 107.942 824.808 107.725 825.225 107.575C825.642 107.425 826.167 107.35 826.8 107.35C827.85 107.35 828.8 107.6 829.65 108.1C830.5 108.583 831.183 109.258 831.7 110.125C832.217 110.975 832.475 111.958 832.475 113.075C832.475 114.225 832.192 115.267 831.625 116.2C831.058 117.133 830.292 117.875 829.325 118.425C828.358 118.975 827.283 119.25 826.1 119.25ZM826.1 116.2C826.683 116.2 827.2 116.067 827.65 115.8C828.1 115.517 828.458 115.142 828.725 114.675C828.992 114.192 829.125 113.65 829.125 113.05C829.125 112.45 828.992 111.917 828.725 111.45C828.458 110.967 828.1 110.592 827.65 110.325C827.2 110.058 826.683 109.925 826.1 109.925C825.517 109.925 824.992 110.067 824.525 110.35C824.075 110.617 823.717 110.983 823.45 111.45C823.2 111.917 823.075 112.45 823.075 113.05C823.075 113.65 823.2 114.192 823.45 114.675C823.717 115.142 824.075 115.517 824.525 115.8C824.992 116.067 825.517 116.2 826.1 116.2ZM845.034 108.775H849.109V98.125H852.409V111.45H849.109V110.775H845.034V108.775ZM840.359 100.625C838.709 100.625 837.659 101.05 837.659 101.925C837.659 102.775 838.709 103.2 840.359 103.2C842.009 103.2 843.034 102.775 843.034 101.925C843.034 101.05 842.009 100.625 840.359 100.625ZM840.359 105.325C836.909 105.325 834.609 104 834.609 101.925C834.609 99.8 836.909 98.475 840.359 98.475C843.784 98.475 846.109 99.8 846.109 101.925C846.109 104 843.784 105.325 840.359 105.325ZM838.609 111.475V108.45C836.784 108.475 835.009 108.475 833.384 108.475L833.059 106.225C837.459 106.225 842.934 106.225 847.759 105.725L847.959 107.75C845.959 108.025 843.934 108.2 841.909 108.3V111.475H838.609ZM839.609 118.725H852.934V120.975H836.359V115.475H849.159V114.375H836.334V112.15H852.409V117.55H839.609V118.725Z" fill="white"/>
<path d="M29.8 166V148.425H32.2L39.325 159.825H37.95L45.05 148.425H47.45V166H44.075V154.25L44.725 154.45L39.775 162.4H37.475L32.525 154.45L33.2 154.25V166H29.8ZM55.1152 166.25C53.8986 166.25 52.7986 165.975 51.8152 165.425C50.8486 164.858 50.0736 164.1 49.4902 163.15C48.9236 162.183 48.6402 161.108 48.6402 159.925C48.6402 158.742 48.9236 157.683 49.4902 156.75C50.0569 155.8 50.8319 155.05 51.8152 154.5C52.7986 153.933 53.8902 153.65 55.0902 153.65C56.3236 153.65 57.4236 153.933 58.3902 154.5C59.3736 155.05 60.1486 155.8 60.7152 156.75C61.2819 157.683 61.5652 158.742 61.5652 159.925C61.5652 161.108 61.2819 162.183 60.7152 163.15C60.1486 164.1 59.3736 164.858 58.3902 165.425C57.4236 165.975 56.3319 166.25 55.1152 166.25ZM55.0902 163.2C55.7069 163.2 56.2486 163.067 56.7152 162.8C57.1986 162.517 57.5652 162.133 57.8152 161.65C58.0819 161.15 58.2152 160.583 58.2152 159.95C58.2152 159.317 58.0819 158.758 57.8152 158.275C57.5486 157.792 57.1819 157.417 56.7152 157.15C56.2486 156.867 55.7069 156.725 55.0902 156.725C54.4902 156.725 53.9569 156.867 53.4902 157.15C53.0236 157.417 52.6569 157.792 52.3902 158.275C52.1236 158.758 51.9902 159.317 51.9902 159.95C51.9902 160.583 52.1236 161.15 52.3902 161.65C52.6569 162.133 53.0236 162.517 53.4902 162.8C53.9569 163.067 54.4902 163.2 55.0902 163.2ZM70.5486 166V159.075C70.5486 158.358 70.3236 157.775 69.8736 157.325C69.4236 156.875 68.8403 156.65 68.1236 156.65C67.657 156.65 67.2403 156.75 66.8736 156.95C66.507 157.15 66.2153 157.433 65.9986 157.8C65.7986 158.167 65.6986 158.592 65.6986 159.075L64.4236 158.425C64.4236 157.475 64.6236 156.65 65.0236 155.95C65.4403 155.233 66.007 154.675 66.7236 154.275C67.457 153.875 68.282 153.675 69.1986 153.675C70.082 153.675 70.8736 153.9 71.5736 154.35C72.2736 154.783 72.8236 155.358 73.2236 156.075C73.6236 156.775 73.8236 157.533 73.8236 158.35V166H70.5486ZM62.4236 166V153.925H65.6986V166H62.4236Z" fill="black"/>
<path d="M28.65 209.05L35.275 202.125C35.7417 201.625 36.1167 201.183 36.4 200.8C36.7 200.4 36.9167 200.025 37.05 199.675C37.1833 199.308 37.25 198.942 37.25 198.575C37.25 197.842 37.0083 197.267 36.525 196.85C36.0583 196.433 35.45 196.225 34.7 196.225C33.9333 196.225 33.25 196.425 32.65 196.825C32.0667 197.225 31.5167 197.858 31 198.725L28.675 196.75C29.375 195.567 30.2417 194.675 31.275 194.075C32.325 193.458 33.525 193.15 34.875 193.15C36.025 193.15 37.025 193.375 37.875 193.825C38.7417 194.275 39.4083 194.9 39.875 195.7C40.3417 196.5 40.575 197.433 40.575 198.5C40.575 199.217 40.4833 199.867 40.3 200.45C40.1333 201.033 39.8417 201.617 39.425 202.2C39.025 202.767 38.4667 203.408 37.75 204.125L32.925 209.05H28.65ZM28.65 211V209.05L31.55 208.05H40.95V211H28.65ZM43.1289 211L49.3039 195.4H52.6539L46.6539 211H43.1289ZM40.7039 196.375V193.425H52.6539V195.4L51.3789 196.375H40.7039Z" fill="#B8B8B8"/>
<path d="M261.65 209.05L268.275 202.125C268.742 201.625 269.117 201.183 269.4 200.8C269.7 200.4 269.917 200.025 270.05 199.675C270.183 199.308 270.25 198.942 270.25 198.575C270.25 197.842 270.008 197.267 269.525 196.85C269.058 196.433 268.45 196.225 267.7 196.225C266.933 196.225 266.25 196.425 265.65 196.825C265.067 197.225 264.517 197.858 264 198.725L261.675 196.75C262.375 195.567 263.242 194.675 264.275 194.075C265.325 193.458 266.525 193.15 267.875 193.15C269.025 193.15 270.025 193.375 270.875 193.825C271.742 194.275 272.408 194.9 272.875 195.7C273.342 196.5 273.575 197.433 273.575 198.5C273.575 199.217 273.483 199.867 273.3 200.45C273.133 201.033 272.842 201.617 272.425 202.2C272.025 202.767 271.467 203.408 270.75 204.125L265.925 209.05H261.65ZM261.65 211V209.05L264.55 208.05H273.95V211H261.65ZM280.518 211.25C279.268 211.25 278.185 211.033 277.268 210.6C276.368 210.167 275.66 209.558 275.143 208.775C274.643 207.992 274.393 207.108 274.393 206.125C274.393 205.308 274.552 204.567 274.868 203.9C275.185 203.233 275.635 202.675 276.218 202.225C276.818 201.758 277.518 201.433 278.318 201.25L278.243 202.075C277.577 201.908 277.01 201.617 276.543 201.2C276.077 200.783 275.727 200.292 275.493 199.725C275.26 199.142 275.143 198.542 275.143 197.925C275.143 196.975 275.368 196.142 275.818 195.425C276.285 194.708 276.918 194.15 277.718 193.75C278.535 193.35 279.468 193.15 280.518 193.15C281.568 193.15 282.493 193.35 283.293 193.75C284.093 194.15 284.718 194.708 285.168 195.425C285.635 196.142 285.868 196.975 285.868 197.925C285.868 198.542 285.752 199.142 285.518 199.725C285.285 200.292 284.935 200.783 284.468 201.2C284.018 201.617 283.452 201.908 282.768 202.075L282.693 201.25C283.51 201.433 284.21 201.758 284.793 202.225C285.377 202.675 285.827 203.233 286.143 203.9C286.46 204.567 286.618 205.308 286.618 206.125C286.618 207.108 286.368 207.992 285.868 208.775C285.368 209.558 284.66 210.167 283.743 210.6C282.827 211.033 281.752 211.25 280.518 211.25ZM280.518 208.275C281.068 208.275 281.56 208.167 281.993 207.95C282.427 207.717 282.76 207.4 282.993 207C283.243 206.6 283.368 206.15 283.368 205.65C283.368 205.133 283.243 204.683 282.993 204.3C282.76 203.9 282.427 203.592 281.993 203.375C281.56 203.142 281.068 203.025 280.518 203.025C279.952 203.025 279.452 203.142 279.018 203.375C278.602 203.592 278.268 203.9 278.018 204.3C277.768 204.683 277.643 205.133 277.643 205.65C277.643 206.15 277.768 206.6 278.018 207C278.268 207.4 278.602 207.717 279.018 207.95C279.452 208.167 279.952 208.275 280.518 208.275ZM280.518 200.45C281.168 200.45 281.702 200.242 282.118 199.825C282.535 199.408 282.743 198.875 282.743 198.225C282.743 197.558 282.535 197.017 282.118 196.6C281.702 196.183 281.168 195.975 280.518 195.975C279.868 195.975 279.327 196.183 278.893 196.6C278.477 197.017 278.268 197.55 278.268 198.2C278.268 198.867 278.477 199.408 278.893 199.825C279.327 200.242 279.868 200.45 280.518 200.45Z" fill="#B8B8B8"/>
<path d="M494.65 209.05L501.275 202.125C501.742 201.625 502.117 201.183 502.4 200.8C502.7 200.4 502.917 200.025 503.05 199.675C503.183 199.308 503.25 198.942 503.25 198.575C503.25 197.842 503.008 197.267 502.525 196.85C502.058 196.433 501.45 196.225 500.7 196.225C499.933 196.225 499.25 196.425 498.65 196.825C498.067 197.225 497.517 197.858 497 198.725L494.675 196.75C495.375 195.567 496.242 194.675 497.275 194.075C498.325 193.458 499.525 193.15 500.875 193.15C502.025 193.15 503.025 193.375 503.875 193.825C504.742 194.275 505.408 194.9 505.875 195.7C506.342 196.5 506.575 197.433 506.575 198.5C506.575 199.217 506.483 199.867 506.3 200.45C506.133 201.033 505.842 201.617 505.425 202.2C505.025 202.767 504.467 203.408 503.75 204.125L498.925 209.05H494.65ZM494.65 211V209.05L497.55 208.05H506.95V211H494.65ZM509.643 211L514.993 203.55L516.218 203.175C516.018 203.558 515.785 203.9 515.518 204.2C515.268 204.483 514.943 204.7 514.543 204.85C514.143 205 513.618 205.075 512.968 205.075C511.935 205.075 510.985 204.833 510.118 204.35C509.268 203.85 508.585 203.167 508.068 202.3C507.552 201.433 507.293 200.442 507.293 199.325C507.293 198.192 507.577 197.158 508.143 196.225C508.71 195.275 509.477 194.525 510.443 193.975C511.41 193.425 512.485 193.15 513.668 193.15C514.868 193.15 515.943 193.425 516.893 193.975C517.86 194.525 518.618 195.258 519.168 196.175C519.735 197.092 520.018 198.117 520.018 199.25C520.018 200.8 519.477 202.367 518.393 203.95L513.518 211H509.643ZM513.668 202.475C514.252 202.475 514.768 202.342 515.218 202.075C515.668 201.808 516.018 201.442 516.268 200.975C516.535 200.492 516.668 199.958 516.668 199.375C516.668 198.758 516.535 198.217 516.268 197.75C516.018 197.283 515.668 196.917 515.218 196.65C514.768 196.367 514.252 196.225 513.668 196.225C513.085 196.225 512.56 196.367 512.093 196.65C511.643 196.917 511.285 197.283 511.018 197.75C510.768 198.217 510.643 198.758 510.643 199.375C510.643 199.975 510.768 200.508 511.018 200.975C511.285 201.442 511.652 201.808 512.118 202.075C512.585 202.342 513.102 202.475 513.668 202.475Z" fill="#B8B8B8"/>
<path d="M732.225 211.25C731.042 211.25 729.958 211.042 728.975 210.625C727.992 210.192 727.167 209.575 726.5 208.775L728.75 206.55C729.083 207.05 729.558 207.45 730.175 207.75C730.792 208.05 731.458 208.2 732.175 208.2C732.842 208.2 733.417 208.083 733.9 207.85C734.383 207.6 734.758 207.258 735.025 206.825C735.308 206.375 735.45 205.858 735.45 205.275C735.45 204.658 735.308 204.133 735.025 203.7C734.758 203.267 734.367 202.933 733.85 202.7C733.333 202.467 732.717 202.35 732 202.35C731.683 202.35 731.358 202.375 731.025 202.425C730.692 202.458 730.408 202.517 730.175 202.6L731.675 200.7C732.092 200.567 732.5 200.458 732.9 200.375C733.317 200.275 733.7 200.225 734.05 200.225C734.95 200.225 735.758 200.442 736.475 200.875C737.208 201.292 737.783 201.892 738.2 202.675C738.633 203.442 738.85 204.35 738.85 205.4C738.85 206.567 738.575 207.592 738.025 208.475C737.475 209.342 736.7 210.025 735.7 210.525C734.717 211.008 733.558 211.25 732.225 211.25ZM730.175 202.6V200.65L734.675 195.425L738.575 195.375L733.925 200.7L730.175 202.6ZM727.475 196.375V193.425H738.575V195.375L735.8 196.375H727.475ZM746.795 211.25C745.412 211.25 744.162 210.875 743.045 210.125C741.928 209.375 741.037 208.317 740.37 206.95C739.72 205.583 739.395 203.992 739.395 202.175C739.395 200.358 739.72 198.775 740.37 197.425C741.02 196.075 741.895 195.025 742.995 194.275C744.112 193.525 745.353 193.15 746.72 193.15C748.12 193.15 749.37 193.525 750.47 194.275C751.587 195.025 752.47 196.083 753.12 197.45C753.77 198.8 754.095 200.392 754.095 202.225C754.095 204.042 753.77 205.633 753.12 207C752.47 208.35 751.595 209.4 750.495 210.15C749.395 210.883 748.162 211.25 746.795 211.25ZM746.745 208.175C747.545 208.175 748.237 207.95 748.82 207.5C749.403 207.05 749.853 206.383 750.17 205.5C750.503 204.617 750.67 203.517 750.67 202.2C750.67 200.883 750.503 199.783 750.17 198.9C749.853 198.017 749.395 197.358 748.795 196.925C748.212 196.475 747.52 196.25 746.72 196.25C745.937 196.25 745.253 196.475 744.67 196.925C744.087 197.358 743.628 198.017 743.295 198.9C742.978 199.767 742.82 200.858 742.82 202.175C742.82 203.508 742.978 204.617 743.295 205.5C743.628 206.383 744.087 207.05 744.67 207.5C745.253 207.95 745.945 208.175 746.745 208.175Z" fill="#B8B8B8"/>
<path d="M965.225 211.25C964.042 211.25 962.958 211.042 961.975 210.625C960.992 210.192 960.167 209.575 959.5 208.775L961.75 206.55C962.083 207.05 962.558 207.45 963.175 207.75C963.792 208.05 964.458 208.2 965.175 208.2C965.842 208.2 966.417 208.083 966.9 207.85C967.383 207.6 967.758 207.258 968.025 206.825C968.308 206.375 968.45 205.858 968.45 205.275C968.45 204.658 968.308 204.133 968.025 203.7C967.758 203.267 967.367 202.933 966.85 202.7C966.333 202.467 965.717 202.35 965 202.35C964.683 202.35 964.358 202.375 964.025 202.425C963.692 202.458 963.408 202.517 963.175 202.6L964.675 200.7C965.092 200.567 965.5 200.458 965.9 200.375C966.317 200.275 966.7 200.225 967.05 200.225C967.95 200.225 968.758 200.442 969.475 200.875C970.208 201.292 970.783 201.892 971.2 202.675C971.633 203.442 971.85 204.35 971.85 205.4C971.85 206.567 971.575 207.592 971.025 208.475C970.475 209.342 969.7 210.025 968.7 210.525C967.717 211.008 966.558 211.25 965.225 211.25ZM963.175 202.6V200.65L967.675 195.425L971.575 195.375L966.925 200.7L963.175 202.6ZM960.475 196.375V193.425H971.575V195.375L968.8 196.375H960.475ZM975.52 211V193.425H978.87V211H975.52ZM972.07 196.375V193.425H978.62V196.375H972.07Z" fill="#B8B8B8"/>
<path d="M1196.03 211V193.425H1199.38V211H1196.03ZM1192.58 196.375V193.425H1199.13V196.375H1192.58Z" fill="black"/>
<path d="M1428.65 209.05L1435.28 202.125C1435.74 201.625 1436.12 201.183 1436.4 200.8C1436.7 200.4 1436.92 200.025 1437.05 199.675C1437.18 199.308 1437.25 198.942 1437.25 198.575C1437.25 197.842 1437.01 197.267 1436.53 196.85C1436.06 196.433 1435.45 196.225 1434.7 196.225C1433.93 196.225 1433.25 196.425 1432.65 196.825C1432.07 197.225 1431.52 197.858 1431 198.725L1428.68 196.75C1429.38 195.567 1430.24 194.675 1431.28 194.075C1432.33 193.458 1433.53 193.15 1434.88 193.15C1436.03 193.15 1437.03 193.375 1437.88 193.825C1438.74 194.275 1439.41 194.9 1439.88 195.7C1440.34 196.5 1440.58 197.433 1440.58 198.5C1440.58 199.217 1440.48 199.867 1440.3 200.45C1440.13 201.033 1439.84 201.617 1439.43 202.2C1439.03 202.767 1438.47 203.408 1437.75 204.125L1432.93 209.05H1428.65ZM1428.65 211V209.05L1431.55 208.05H1440.95V211H1428.65Z" fill="black"/>
<path d="M34.225 351.25C33.0417 351.25 31.9583 351.042 30.975 350.625C29.9917 350.192 29.1667 349.575 28.5 348.775L30.75 346.55C31.0833 347.05 31.5583 347.45 32.175 347.75C32.7917 348.05 33.4583 348.2 34.175 348.2C34.8417 348.2 35.4167 348.083 35.9 347.85C36.3833 347.6 36.7583 347.258 37.025 346.825C37.3083 346.375 37.45 345.858 37.45 345.275C37.45 344.658 37.3083 344.133 37.025 343.7C36.7583 343.267 36.3667 342.933 35.85 342.7C35.3333 342.467 34.7167 342.35 34 342.35C33.6833 342.35 33.3583 342.375 33.025 342.425C32.6917 342.458 32.4083 342.517 32.175 342.6L33.675 340.7C34.0917 340.567 34.5 340.458 34.9 340.375C35.3167 340.275 35.7 340.225 36.05 340.225C36.95 340.225 37.7583 340.442 38.475 340.875C39.2083 341.292 39.7833 341.892 40.2 342.675C40.6333 343.442 40.85 344.35 40.85 345.4C40.85 346.567 40.575 347.592 40.025 348.475C39.475 349.342 38.7 350.025 37.7 350.525C36.7167 351.008 35.5583 351.25 34.225 351.25ZM32.175 342.6V340.65L36.675 335.425L40.575 335.375L35.925 340.7L32.175 342.6ZM29.475 336.375V333.425H40.575V335.375L37.8 336.375H29.475Z" fill="black"/>
<path d="M264.625 344.8L270.625 333.425H274.375L268.225 344.8H264.625ZM264.625 346.8V344.8L265.875 343.825H278.475V346.8H264.625ZM272.925 351V339.8H276.275V351H272.925Z" fill="black"/>
<path d="M503.25 351.25C502.033 351.25 500.925 351.042 499.925 350.625C498.925 350.192 498.092 349.575 497.425 348.775L499.675 346.55C500.008 347.05 500.483 347.45 501.1 347.75C501.733 348.05 502.425 348.2 503.175 348.2C503.858 348.2 504.45 348.075 504.95 347.825C505.467 347.575 505.867 347.225 506.15 346.775C506.45 346.308 506.6 345.767 506.6 345.15C506.6 344.5 506.45 343.95 506.15 343.5C505.867 343.05 505.483 342.708 505 342.475C504.517 342.242 503.975 342.125 503.375 342.125C502.742 342.125 502.167 342.208 501.65 342.375C501.15 342.525 500.667 342.775 500.2 343.125L500.4 340.975C500.717 340.642 501.05 340.375 501.4 340.175C501.75 339.958 502.142 339.8 502.575 339.7C503.025 339.583 503.55 339.525 504.15 339.525C505.433 339.525 506.5 339.792 507.35 340.325C508.217 340.842 508.875 341.542 509.325 342.425C509.775 343.292 510 344.25 510 345.3C510 346.45 509.717 347.475 509.15 348.375C508.583 349.275 507.792 349.983 506.775 350.5C505.775 351 504.6 351.25 503.25 351.25ZM500.2 343.125L498.575 341.525L499.375 333.425H502.45L501.55 341.65L500.2 343.125ZM499.9 336.375L499.375 333.425H509.025V336.375H499.9Z" fill="black"/>
<path d="M737.1 351.25C735.9 351.25 734.817 350.983 733.85 350.45C732.9 349.9 732.142 349.167 731.575 348.25C731.025 347.317 730.75 346.283 730.75 345.15C730.75 343.6 731.283 342.042 732.35 340.475L737.225 333.425H741.125L735.8 340.875L734.55 341.225C734.733 340.842 734.95 340.508 735.2 340.225C735.467 339.942 735.808 339.725 736.225 339.575C736.642 339.425 737.167 339.35 737.8 339.35C738.85 339.35 739.8 339.6 740.65 340.1C741.5 340.583 742.183 341.258 742.7 342.125C743.217 342.975 743.475 343.958 743.475 345.075C743.475 346.225 743.192 347.267 742.625 348.2C742.058 349.133 741.292 349.875 740.325 350.425C739.358 350.975 738.283 351.25 737.1 351.25ZM737.1 348.2C737.683 348.2 738.2 348.067 738.65 347.8C739.1 347.517 739.458 347.142 739.725 346.675C739.992 346.192 740.125 345.65 740.125 345.05C740.125 344.45 739.992 343.917 739.725 343.45C739.458 342.967 739.1 342.592 738.65 342.325C738.2 342.058 737.683 341.925 737.1 341.925C736.517 341.925 735.992 342.067 735.525 342.35C735.075 342.617 734.717 342.983 734.45 343.45C734.2 343.917 734.075 344.45 734.075 345.05C734.075 345.65 734.2 346.192 734.45 346.675C734.717 347.142 735.075 347.517 735.525 347.8C735.992 348.067 736.517 348.2 737.1 348.2Z" fill="black"/>
<path d="M901.62 346.34V342.92H899.22V340.82H901.62V338.98H899.22V336.88H901.62V332.3H904.26V346.34H901.62ZM899.02 334.24V336.3H888.92V334.24H892.78V332.24H895.42V334.24H899.02ZM892.26 340.56C892.26 341.6 893.02 342.16 894.1 342.16C895.16 342.16 895.92 341.6 895.92 340.56C895.92 339.56 895.16 338.98 894.1 338.98C893.02 338.98 892.26 339.56 892.26 340.56ZM898.4 340.56C898.4 342.7 896.6 344.2 894.1 344.2C891.58 344.2 889.78 342.7 889.78 340.56C889.78 338.44 891.58 336.96 894.1 336.96C896.6 336.96 898.4 338.44 898.4 340.56ZM894.74 348.3H904.66V350.4H892.1V345.2H894.74V348.3ZM907.738 340.56L906.958 338.6C910.818 338.36 912.618 337.24 913.018 336.02H907.838V333.96H913.238V332.34H915.878V333.96H921.298V336.02H916.118C916.518 337.24 918.318 338.36 922.178 338.6L921.398 340.56C918.018 340.32 915.718 339.38 914.578 337.92C913.418 339.38 911.118 340.32 907.738 340.56ZM918.258 347.6C918.258 346.76 917.038 346.42 914.538 346.42C912.038 346.42 910.818 346.76 910.818 347.6C910.818 348.42 912.038 348.78 914.538 348.78C917.038 348.78 918.258 348.42 918.258 347.6ZM922.898 343.22H915.878V344.52C919.078 344.76 920.938 345.82 920.938 347.6C920.938 349.62 918.558 350.72 914.538 350.72C910.518 350.72 908.158 349.62 908.158 347.6C908.158 345.82 910.018 344.76 913.238 344.52V343.22H906.258V341.16H922.898V343.22ZM938.957 332.3V341.52H936.297V332.3H938.957ZM926.477 337.04C926.477 338.36 927.497 339.12 928.857 339.12C930.217 339.12 931.197 338.36 931.197 337.04C931.197 335.74 930.217 334.96 928.857 334.96C927.497 334.96 926.477 335.74 926.477 337.04ZM933.757 337.04C933.757 339.5 931.657 341.26 928.857 341.26C926.037 341.26 923.917 339.5 923.917 337.04C923.917 334.6 926.037 332.84 928.857 332.84C931.657 332.84 933.757 334.6 933.757 337.04ZM929.317 348.46H939.417V350.5H926.697V345.42H936.337V344.3H926.677V342.28H938.957V347.3H929.317V348.46Z" fill="black"/>
<path d="M965 351L971.175 335.4H974.525L968.525 351H965ZM962.575 336.375V333.425H974.525V335.4L973.25 336.375H962.575Z" fill="black"/>
<path d="M1201.95 351.25C1200.7 351.25 1199.62 351.033 1198.7 350.6C1197.8 350.167 1197.09 349.558 1196.58 348.775C1196.08 347.992 1195.82 347.108 1195.82 346.125C1195.82 345.308 1195.98 344.567 1196.3 343.9C1196.62 343.233 1197.07 342.675 1197.65 342.225C1198.25 341.758 1198.95 341.433 1199.75 341.25L1199.68 342.075C1199.01 341.908 1198.44 341.617 1197.98 341.2C1197.51 340.783 1197.16 340.292 1196.93 339.725C1196.69 339.142 1196.58 338.542 1196.58 337.925C1196.58 336.975 1196.8 336.142 1197.25 335.425C1197.72 334.708 1198.35 334.15 1199.15 333.75C1199.97 333.35 1200.9 333.15 1201.95 333.15C1203 333.15 1203.93 333.35 1204.73 333.75C1205.53 334.15 1206.15 334.708 1206.6 335.425C1207.07 336.142 1207.3 336.975 1207.3 337.925C1207.3 338.542 1207.18 339.142 1206.95 339.725C1206.72 340.292 1206.37 340.783 1205.9 341.2C1205.45 341.617 1204.88 341.908 1204.2 342.075L1204.13 341.25C1204.94 341.433 1205.64 341.758 1206.23 342.225C1206.81 342.675 1207.26 343.233 1207.58 343.9C1207.89 344.567 1208.05 345.308 1208.05 346.125C1208.05 347.108 1207.8 347.992 1207.3 348.775C1206.8 349.558 1206.09 350.167 1205.18 350.6C1204.26 351.033 1203.18 351.25 1201.95 351.25ZM1201.95 348.275C1202.5 348.275 1202.99 348.167 1203.43 347.95C1203.86 347.717 1204.19 347.4 1204.43 347C1204.68 346.6 1204.8 346.15 1204.8 345.65C1204.8 345.133 1204.68 344.683 1204.43 344.3C1204.19 343.9 1203.86 343.592 1203.43 343.375C1202.99 343.142 1202.5 343.025 1201.95 343.025C1201.38 343.025 1200.88 343.142 1200.45 343.375C1200.03 343.592 1199.7 343.9 1199.45 344.3C1199.2 344.683 1199.08 345.133 1199.08 345.65C1199.08 346.15 1199.2 346.6 1199.45 347C1199.7 347.4 1200.03 347.717 1200.45 347.95C1200.88 348.167 1201.38 348.275 1201.95 348.275ZM1201.95 340.45C1202.6 340.45 1203.13 340.242 1203.55 339.825C1203.97 339.408 1204.18 338.875 1204.18 338.225C1204.18 337.558 1203.97 337.017 1203.55 336.6C1203.13 336.183 1202.6 335.975 1201.95 335.975C1201.3 335.975 1200.76 336.183 1200.33 336.6C1199.91 337.017 1199.7 337.55 1199.7 338.2C1199.7 338.867 1199.91 339.408 1200.33 339.825C1200.76 340.242 1201.3 340.45 1201.95 340.45Z" fill="black"/>
<path d="M1431.08 351L1436.43 343.55L1437.65 343.175C1437.45 343.558 1437.22 343.9 1436.95 344.2C1436.7 344.483 1436.38 344.7 1435.98 344.85C1435.58 345 1435.05 345.075 1434.4 345.075C1433.37 345.075 1432.42 344.833 1431.55 344.35C1430.7 343.85 1430.02 343.167 1429.5 342.3C1428.98 341.433 1428.73 340.442 1428.73 339.325C1428.73 338.192 1429.01 337.158 1429.58 336.225C1430.14 335.275 1430.91 334.525 1431.88 333.975C1432.84 333.425 1433.92 333.15 1435.1 333.15C1436.3 333.15 1437.38 333.425 1438.33 333.975C1439.29 334.525 1440.05 335.258 1440.6 336.175C1441.17 337.092 1441.45 338.117 1441.45 339.25C1441.45 340.8 1440.91 342.367 1439.83 343.95L1434.95 351H1431.08ZM1435.1 342.475C1435.68 342.475 1436.2 342.342 1436.65 342.075C1437.1 341.808 1437.45 341.442 1437.7 340.975C1437.97 340.492 1438.1 339.958 1438.1 339.375C1438.1 338.758 1437.97 338.217 1437.7 337.75C1437.45 337.283 1437.1 336.917 1436.65 336.65C1436.2 336.367 1435.68 336.225 1435.1 336.225C1434.52 336.225 1433.99 336.367 1433.53 336.65C1433.08 336.917 1432.72 337.283 1432.45 337.75C1432.2 338.217 1432.08 338.758 1432.08 339.375C1432.08 339.975 1432.2 340.508 1432.45 340.975C1432.72 341.442 1433.08 341.808 1433.55 342.075C1434.02 342.342 1434.53 342.475 1435.1 342.475Z" fill="black"/>
<path d="M1199.03 482V464.425H1202.38V482H1199.03ZM1195.58 467.375V464.425H1202.13V467.375H1195.58ZM1209.18 482.25C1207.96 482.25 1206.85 482.042 1205.85 481.625C1204.85 481.192 1204.02 480.575 1203.35 479.775L1205.6 477.55C1205.94 478.05 1206.41 478.45 1207.03 478.75C1207.66 479.05 1208.35 479.2 1209.1 479.2C1209.79 479.2 1210.38 479.075 1210.88 478.825C1211.4 478.575 1211.8 478.225 1212.08 477.775C1212.38 477.308 1212.53 476.767 1212.53 476.15C1212.53 475.5 1212.38 474.95 1212.08 474.5C1211.8 474.05 1211.41 473.708 1210.93 473.475C1210.45 473.242 1209.9 473.125 1209.3 473.125C1208.67 473.125 1208.1 473.208 1207.58 473.375C1207.08 473.525 1206.6 473.775 1206.13 474.125L1206.33 471.975C1206.65 471.642 1206.98 471.375 1207.33 471.175C1207.68 470.958 1208.07 470.8 1208.5 470.7C1208.95 470.583 1209.48 470.525 1210.08 470.525C1211.36 470.525 1212.43 470.792 1213.28 471.325C1214.15 471.842 1214.8 472.542 1215.25 473.425C1215.7 474.292 1215.93 475.25 1215.93 476.3C1215.93 477.45 1215.65 478.475 1215.08 479.375C1214.51 480.275 1213.72 480.983 1212.7 481.5C1211.7 482 1210.53 482.25 1209.18 482.25ZM1206.13 474.125L1204.5 472.525L1205.3 464.425H1208.38L1207.48 472.65L1206.13 474.125ZM1205.83 467.375L1205.3 464.425H1214.95V467.375H1205.83Z" fill="black"/>
<path d="M1432.03 482V464.425H1435.38V482H1432.03ZM1428.58 467.375V464.425H1435.13V467.375H1428.58ZM1443.03 482.25C1441.83 482.25 1440.75 481.983 1439.78 481.45C1438.83 480.9 1438.07 480.167 1437.5 479.25C1436.95 478.317 1436.68 477.283 1436.68 476.15C1436.68 474.6 1437.21 473.042 1438.28 471.475L1443.15 464.425H1447.05L1441.73 471.875L1440.48 472.225C1440.66 471.842 1440.88 471.508 1441.13 471.225C1441.4 470.942 1441.74 470.725 1442.15 470.575C1442.57 470.425 1443.1 470.35 1443.73 470.35C1444.78 470.35 1445.73 470.6 1446.58 471.1C1447.43 471.583 1448.11 472.258 1448.63 473.125C1449.15 473.975 1449.4 474.958 1449.4 476.075C1449.4 477.225 1449.12 478.267 1448.55 479.2C1447.99 480.133 1447.22 480.875 1446.25 481.425C1445.29 481.975 1444.21 482.25 1443.03 482.25ZM1443.03 479.2C1443.61 479.2 1444.13 479.067 1444.58 478.8C1445.03 478.517 1445.39 478.142 1445.65 477.675C1445.92 477.192 1446.05 476.65 1446.05 476.05C1446.05 475.45 1445.92 474.917 1445.65 474.45C1445.39 473.967 1445.03 473.592 1444.58 473.325C1444.13 473.058 1443.61 472.925 1443.03 472.925C1442.45 472.925 1441.92 473.067 1441.45 473.35C1441 473.617 1440.65 473.983 1440.38 474.45C1440.13 474.917 1440 475.45 1440 476.05C1440 476.65 1440.13 477.192 1440.38 477.675C1440.65 478.142 1441 478.517 1441.45 478.8C1441.92 479.067 1442.45 479.2 1443.03 479.2Z" fill="black"/>
<path d="M32.025 623V605.425H35.375V623H32.025ZM28.575 608.375V605.425H35.125V608.375H28.575ZM38.9297 623L45.1047 607.4H48.4547L42.4547 623H38.9297ZM36.5047 608.375V605.425H48.4547V607.4L47.1797 608.375H36.5047Z" fill="black"/>
<path d="M268.025 623V605.425H271.375V623H268.025ZM264.575 608.375V605.425H271.125V608.375H264.575ZM278.88 623.25C277.63 623.25 276.546 623.033 275.63 622.6C274.73 622.167 274.021 621.558 273.505 620.775C273.005 619.992 272.755 619.108 272.755 618.125C272.755 617.308 272.913 616.567 273.23 615.9C273.546 615.233 273.996 614.675 274.58 614.225C275.18 613.758 275.88 613.433 276.68 613.25L276.605 614.075C275.938 613.908 275.371 613.617 274.905 613.2C274.438 612.783 274.088 612.292 273.855 611.725C273.621 611.142 273.505 610.542 273.505 609.925C273.505 608.975 273.73 608.142 274.18 607.425C274.646 606.708 275.28 606.15 276.08 605.75C276.896 605.35 277.83 605.15 278.88 605.15C279.93 605.15 280.855 605.35 281.655 605.75C282.455 606.15 283.08 606.708 283.53 607.425C283.996 608.142 284.23 608.975 284.23 609.925C284.23 610.542 284.113 611.142 283.88 611.725C283.646 612.292 283.296 612.783 282.83 613.2C282.38 613.617 281.813 613.908 281.13 614.075L281.055 613.25C281.871 613.433 282.571 613.758 283.155 614.225C283.738 614.675 284.188 615.233 284.505 615.9C284.821 616.567 284.98 617.308 284.98 618.125C284.98 619.108 284.73 619.992 284.23 620.775C283.73 621.558 283.021 622.167 282.105 622.6C281.188 623.033 280.113 623.25 278.88 623.25ZM278.88 620.275C279.43 620.275 279.921 620.167 280.355 619.95C280.788 619.717 281.121 619.4 281.355 619C281.605 618.6 281.73 618.15 281.73 617.65C281.73 617.133 281.605 616.683 281.355 616.3C281.121 615.9 280.788 615.592 280.355 615.375C279.921 615.142 279.43 615.025 278.88 615.025C278.313 615.025 277.813 615.142 277.38 615.375C276.963 615.592 276.63 615.9 276.38 616.3C276.13 616.683 276.005 617.133 276.005 617.65C276.005 618.15 276.13 618.6 276.38 619C276.63 619.4 276.963 619.717 277.38 619.95C277.813 620.167 278.313 620.275 278.88 620.275ZM278.88 612.45C279.53 612.45 280.063 612.242 280.48 611.825C280.896 611.408 281.105 610.875 281.105 610.225C281.105 609.558 280.896 609.017 280.48 608.6C280.063 608.183 279.53 607.975 278.88 607.975C278.23 607.975 277.688 608.183 277.255 608.6C276.838 609.017 276.63 609.55 276.63 610.2C276.63 610.867 276.838 611.408 277.255 611.825C277.688 612.242 278.23 612.45 278.88 612.45Z" fill="black"/>
<path d="M501.025 623V605.425H504.375V623H501.025ZM497.575 608.375V605.425H504.125V608.375H497.575ZM508.005 623L513.355 615.55L514.58 615.175C514.38 615.558 514.146 615.9 513.88 616.2C513.63 616.483 513.305 616.7 512.905 616.85C512.505 617 511.98 617.075 511.33 617.075C510.296 617.075 509.346 616.833 508.48 616.35C507.63 615.85 506.946 615.167 506.43 614.3C505.913 613.433 505.655 612.442 505.655 611.325C505.655 610.192 505.938 609.158 506.505 608.225C507.071 607.275 507.838 606.525 508.805 605.975C509.771 605.425 510.846 605.15 512.03 605.15C513.23 605.15 514.305 605.425 515.255 605.975C516.221 606.525 516.98 607.258 517.53 608.175C518.096 609.092 518.38 610.117 518.38 611.25C518.38 612.8 517.838 614.367 516.755 615.95L511.88 623H508.005ZM512.03 614.475C512.613 614.475 513.13 614.342 513.58 614.075C514.03 613.808 514.38 613.442 514.63 612.975C514.896 612.492 515.03 611.958 515.03 611.375C515.03 610.758 514.896 610.217 514.63 609.75C514.38 609.283 514.03 608.917 513.58 608.65C513.13 608.367 512.613 608.225 512.03 608.225C511.446 608.225 510.921 608.367 510.455 608.65C510.005 608.917 509.646 609.283 509.38 609.75C509.13 610.217 509.005 610.758 509.005 611.375C509.005 611.975 509.13 612.508 509.38 612.975C509.646 613.442 510.013 613.808 510.48 614.075C510.946 614.342 511.463 614.475 512.03 614.475Z" fill="black"/>
<path d="M730.65 621.05L737.275 614.125C737.742 613.625 738.117 613.183 738.4 612.8C738.7 612.4 738.917 612.025 739.05 611.675C739.183 611.308 739.25 610.942 739.25 610.575C739.25 609.842 739.008 609.267 738.525 608.85C738.058 608.433 737.45 608.225 736.7 608.225C735.933 608.225 735.25 608.425 734.65 608.825C734.067 609.225 733.517 609.858 733 610.725L730.675 608.75C731.375 607.567 732.242 606.675 733.275 606.075C734.325 605.458 735.525 605.15 736.875 605.15C738.025 605.15 739.025 605.375 739.875 605.825C740.742 606.275 741.408 606.9 741.875 607.7C742.342 608.5 742.575 609.433 742.575 610.5C742.575 611.217 742.483 611.867 742.3 612.45C742.133 613.033 741.842 613.617 741.425 614.2C741.025 614.767 740.467 615.408 739.75 616.125L734.925 621.05H730.65ZM730.65 623V621.05L733.55 620.05H742.95V623H730.65ZM750.868 623.25C749.485 623.25 748.235 622.875 747.118 622.125C746.002 621.375 745.11 620.317 744.443 618.95C743.793 617.583 743.468 615.992 743.468 614.175C743.468 612.358 743.793 610.775 744.443 609.425C745.093 608.075 745.968 607.025 747.068 606.275C748.185 605.525 749.427 605.15 750.793 605.15C752.193 605.15 753.443 605.525 754.543 606.275C755.66 607.025 756.543 608.083 757.193 609.45C757.843 610.8 758.168 612.392 758.168 614.225C758.168 616.042 757.843 617.633 757.193 619C756.543 620.35 755.668 621.4 754.568 622.15C753.468 622.883 752.235 623.25 750.868 623.25ZM750.818 620.175C751.618 620.175 752.31 619.95 752.893 619.5C753.477 619.05 753.927 618.383 754.243 617.5C754.577 616.617 754.743 615.517 754.743 614.2C754.743 612.883 754.577 611.783 754.243 610.9C753.927 610.017 753.468 609.358 752.868 608.925C752.285 608.475 751.593 608.25 750.793 608.25C750.01 608.25 749.327 608.475 748.743 608.925C748.16 609.358 747.702 610.017 747.368 610.9C747.052 611.767 746.893 612.858 746.893 614.175C746.893 615.508 747.052 616.617 747.368 617.5C747.702 618.383 748.16 619.05 748.743 619.5C749.327 619.95 750.018 620.175 750.818 620.175Z" fill="black"/>
<path d="M962.65 621.05L969.275 614.125C969.742 613.625 970.117 613.183 970.4 612.8C970.7 612.4 970.917 612.025 971.05 611.675C971.183 611.308 971.25 610.942 971.25 610.575C971.25 609.842 971.008 609.267 970.525 608.85C970.058 608.433 969.45 608.225 968.7 608.225C967.933 608.225 967.25 608.425 966.65 608.825C966.067 609.225 965.517 609.858 965 610.725L962.675 608.75C963.375 607.567 964.242 606.675 965.275 606.075C966.325 605.458 967.525 605.15 968.875 605.15C970.025 605.15 971.025 605.375 971.875 605.825C972.742 606.275 973.408 606.9 973.875 607.7C974.342 608.5 974.575 609.433 974.575 610.5C974.575 611.217 974.483 611.867 974.3 612.45C974.133 613.033 973.842 613.617 973.425 614.2C973.025 614.767 972.467 615.408 971.75 616.125L966.925 621.05H962.65ZM962.65 623V621.05L965.55 620.05H974.95V623H962.65ZM978.593 623V605.425H981.943V623H978.593ZM975.143 608.375V605.425H981.693V608.375H975.143Z" fill="black"/>
<path d="M1140.18 616.8C1141.42 616.8 1142.32 615.96 1142.32 614.54C1142.32 613.16 1141.42 612.3 1140.18 612.3C1138.94 612.3 1138.02 613.16 1138.02 614.56C1138.02 615.96 1138.94 616.8 1140.18 616.8ZM1140.18 610.16C1142.84 610.16 1144.82 611.98 1144.82 614.54C1144.82 617.14 1142.84 618.96 1140.18 618.96C1137.5 618.96 1135.5 617.14 1135.5 614.54C1135.5 611.98 1137.5 610.16 1140.18 610.16ZM1141.48 604.62V607.02H1145.48V609.12H1134.76V607.02H1138.84V604.62H1141.48ZM1151.96 611.5V613.68H1149.32V622.72H1146.68V604.3H1149.32V611.5H1151.96ZM1159.38 608.24V609.26C1159.38 612.26 1160.86 615.44 1163.94 616.72L1162.5 618.8C1160.36 617.88 1158.9 616.08 1158.08 613.86C1157.26 616.26 1155.78 618.28 1153.62 619.26L1152.12 617.16C1155.2 615.78 1156.7 612.4 1156.7 609.26V608.24H1152.86V606.06H1163.18V608.24H1159.38ZM1164.88 604.3H1167.52V622.72H1164.88V604.3Z" fill="black"/>
<path d="M1195.65 621.05L1202.28 614.125C1202.74 613.625 1203.12 613.183 1203.4 612.8C1203.7 612.4 1203.92 612.025 1204.05 611.675C1204.18 611.308 1204.25 610.942 1204.25 610.575C1204.25 609.842 1204.01 609.267 1203.53 608.85C1203.06 608.433 1202.45 608.225 1201.7 608.225C1200.93 608.225 1200.25 608.425 1199.65 608.825C1199.07 609.225 1198.52 609.858 1198 610.725L1195.68 608.75C1196.38 607.567 1197.24 606.675 1198.28 606.075C1199.33 605.458 1200.53 605.15 1201.88 605.15C1203.03 605.15 1204.03 605.375 1204.88 605.825C1205.74 606.275 1206.41 606.9 1206.88 607.7C1207.34 608.5 1207.58 609.433 1207.58 610.5C1207.58 611.217 1207.48 611.867 1207.3 612.45C1207.13 613.033 1206.84 613.617 1206.43 614.2C1206.03 614.767 1205.47 615.408 1204.75 616.125L1199.93 621.05H1195.65ZM1195.65 623V621.05L1198.55 620.05H1207.95V623H1195.65ZM1208.22 621.05L1214.84 614.125C1215.31 613.625 1215.69 613.183 1215.97 612.8C1216.27 612.4 1216.49 612.025 1216.62 611.675C1216.75 611.308 1216.82 610.942 1216.82 610.575C1216.82 609.842 1216.58 609.267 1216.09 608.85C1215.63 608.433 1215.02 608.225 1214.27 608.225C1213.5 608.225 1212.82 608.425 1212.22 608.825C1211.64 609.225 1211.09 609.858 1210.57 610.725L1208.24 608.75C1208.94 607.567 1209.81 606.675 1210.84 606.075C1211.89 605.458 1213.09 605.15 1214.44 605.15C1215.59 605.15 1216.59 605.375 1217.44 605.825C1218.31 606.275 1218.98 606.9 1219.44 607.7C1219.91 608.5 1220.14 609.433 1220.14 610.5C1220.14 611.217 1220.05 611.867 1219.87 612.45C1219.7 613.033 1219.41 613.617 1218.99 614.2C1218.59 614.767 1218.04 615.408 1217.32 616.125L1212.49 621.05H1208.22ZM1208.22 623V621.05L1211.12 620.05H1220.52V623H1208.22Z" fill="black"/>
<path d="M1428.65 621.05L1435.28 614.125C1435.74 613.625 1436.12 613.183 1436.4 612.8C1436.7 612.4 1436.92 612.025 1437.05 611.675C1437.18 611.308 1437.25 610.942 1437.25 610.575C1437.25 609.842 1437.01 609.267 1436.53 608.85C1436.06 608.433 1435.45 608.225 1434.7 608.225C1433.93 608.225 1433.25 608.425 1432.65 608.825C1432.07 609.225 1431.52 609.858 1431 610.725L1428.68 608.75C1429.38 607.567 1430.24 606.675 1431.28 606.075C1432.33 605.458 1433.53 605.15 1434.88 605.15C1436.03 605.15 1437.03 605.375 1437.88 605.825C1438.74 606.275 1439.41 606.9 1439.88 607.7C1440.34 608.5 1440.58 609.433 1440.58 610.5C1440.58 611.217 1440.48 611.867 1440.3 612.45C1440.13 613.033 1439.84 613.617 1439.43 614.2C1439.03 614.767 1438.47 615.408 1437.75 616.125L1432.93 621.05H1428.65ZM1428.65 623V621.05L1431.55 620.05H1440.95V623H1428.65ZM1446.79 623.25C1445.61 623.25 1444.53 623.042 1443.54 622.625C1442.56 622.192 1441.74 621.575 1441.07 620.775L1443.32 618.55C1443.65 619.05 1444.13 619.45 1444.74 619.75C1445.36 620.05 1446.03 620.2 1446.74 620.2C1447.41 620.2 1447.99 620.083 1448.47 619.85C1448.95 619.6 1449.33 619.258 1449.59 618.825C1449.88 618.375 1450.02 617.858 1450.02 617.275C1450.02 616.658 1449.88 616.133 1449.59 615.7C1449.33 615.267 1448.94 614.933 1448.42 614.7C1447.9 614.467 1447.29 614.35 1446.57 614.35C1446.25 614.35 1445.93 614.375 1445.59 614.425C1445.26 614.458 1444.98 614.517 1444.74 614.6L1446.24 612.7C1446.66 612.567 1447.07 612.458 1447.47 612.375C1447.89 612.275 1448.27 612.225 1448.62 612.225C1449.52 612.225 1450.33 612.442 1451.04 612.875C1451.78 613.292 1452.35 613.892 1452.77 614.675C1453.2 615.442 1453.42 616.35 1453.42 617.4C1453.42 618.567 1453.14 619.592 1452.59 620.475C1452.04 621.342 1451.27 622.025 1450.27 622.525C1449.29 623.008 1448.13 623.25 1446.79 623.25ZM1444.74 614.6V612.65L1449.24 607.425L1453.14 607.375L1448.49 612.7L1444.74 614.6ZM1442.04 608.375V605.425H1453.14V607.375L1450.37 608.375H1442.04Z" fill="black"/>
<path d="M28.65 758.05L35.275 751.125C35.7417 750.625 36.1167 750.183 36.4 749.8C36.7 749.4 36.9167 749.025 37.05 748.675C37.1833 748.308 37.25 747.942 37.25 747.575C37.25 746.842 37.0083 746.267 36.525 745.85C36.0583 745.433 35.45 745.225 34.7 745.225C33.9333 745.225 33.25 745.425 32.65 745.825C32.0667 746.225 31.5167 746.858 31 747.725L28.675 745.75C29.375 744.567 30.2417 743.675 31.275 743.075C32.325 742.458 33.525 742.15 34.875 742.15C36.025 742.15 37.025 742.375 37.875 742.825C38.7417 743.275 39.4083 743.9 39.875 744.7C40.3417 745.5 40.575 746.433 40.575 747.5C40.575 748.217 40.4833 748.867 40.3 749.45C40.1333 750.033 39.8417 750.617 39.425 751.2C39.025 751.767 38.4667 752.408 37.75 753.125L32.925 758.05H28.65ZM28.65 760V758.05L31.55 757.05H40.95V760H28.65ZM41.1934 753.8L47.1934 742.425H50.9434L44.7934 753.8H41.1934ZM41.1934 755.8V753.8L42.4434 752.825H55.0434V755.8H41.1934ZM49.4934 760V748.8H52.8434V760H49.4934Z" fill="black"/>
<path d="M264.65 758.05L271.275 751.125C271.742 750.625 272.117 750.183 272.4 749.8C272.7 749.4 272.917 749.025 273.05 748.675C273.183 748.308 273.25 747.942 273.25 747.575C273.25 746.842 273.008 746.267 272.525 745.85C272.058 745.433 271.45 745.225 270.7 745.225C269.933 745.225 269.25 745.425 268.65 745.825C268.067 746.225 267.517 746.858 267 747.725L264.675 745.75C265.375 744.567 266.242 743.675 267.275 743.075C268.325 742.458 269.525 742.15 270.875 742.15C272.025 742.15 273.025 742.375 273.875 742.825C274.742 743.275 275.408 743.9 275.875 744.7C276.342 745.5 276.575 746.433 276.575 747.5C276.575 748.217 276.483 748.867 276.3 749.45C276.133 750.033 275.842 750.617 275.425 751.2C275.025 751.767 274.467 752.408 273.75 753.125L268.925 758.05H264.65ZM264.65 760V758.05L267.55 757.05H276.95V760H264.65ZM282.818 760.25C281.602 760.25 280.493 760.042 279.493 759.625C278.493 759.192 277.66 758.575 276.993 757.775L279.243 755.55C279.577 756.05 280.052 756.45 280.668 756.75C281.302 757.05 281.993 757.2 282.743 757.2C283.427 757.2 284.018 757.075 284.518 756.825C285.035 756.575 285.435 756.225 285.718 755.775C286.018 755.308 286.168 754.767 286.168 754.15C286.168 753.5 286.018 752.95 285.718 752.5C285.435 752.05 285.052 751.708 284.568 751.475C284.085 751.242 283.543 751.125 282.943 751.125C282.31 751.125 281.735 751.208 281.218 751.375C280.718 751.525 280.235 751.775 279.768 752.125L279.968 749.975C280.285 749.642 280.618 749.375 280.968 749.175C281.318 748.958 281.71 748.8 282.143 748.7C282.593 748.583 283.118 748.525 283.718 748.525C285.002 748.525 286.068 748.792 286.918 749.325C287.785 749.842 288.443 750.542 288.893 751.425C289.343 752.292 289.568 753.25 289.568 754.3C289.568 755.45 289.285 756.475 288.718 757.375C288.152 758.275 287.36 758.983 286.343 759.5C285.343 760 284.168 760.25 282.818 760.25ZM279.768 752.125L278.143 750.525L278.943 742.425H282.018L281.118 750.65L279.768 752.125ZM279.468 745.375L278.943 742.425H288.593V745.375H279.468Z" fill="black"/>
<path d="M497.65 758.05L504.275 751.125C504.742 750.625 505.117 750.183 505.4 749.8C505.7 749.4 505.917 749.025 506.05 748.675C506.183 748.308 506.25 747.942 506.25 747.575C506.25 746.842 506.008 746.267 505.525 745.85C505.058 745.433 504.45 745.225 503.7 745.225C502.933 745.225 502.25 745.425 501.65 745.825C501.067 746.225 500.517 746.858 500 747.725L497.675 745.75C498.375 744.567 499.242 743.675 500.275 743.075C501.325 742.458 502.525 742.15 503.875 742.15C505.025 742.15 506.025 742.375 506.875 742.825C507.742 743.275 508.408 743.9 508.875 744.7C509.342 745.5 509.575 746.433 509.575 747.5C509.575 748.217 509.483 748.867 509.3 749.45C509.133 750.033 508.842 750.617 508.425 751.2C508.025 751.767 507.467 752.408 506.75 753.125L501.925 758.05H497.65ZM497.65 760V758.05L500.55 757.05H509.95V760H497.65ZM516.668 760.25C515.468 760.25 514.385 759.983 513.418 759.45C512.468 758.9 511.71 758.167 511.143 757.25C510.593 756.317 510.318 755.283 510.318 754.15C510.318 752.6 510.852 751.042 511.918 749.475L516.793 742.425H520.693L515.368 749.875L514.118 750.225C514.302 749.842 514.518 749.508 514.768 749.225C515.035 748.942 515.377 748.725 515.793 748.575C516.21 748.425 516.735 748.35 517.368 748.35C518.418 748.35 519.368 748.6 520.218 749.1C521.068 749.583 521.752 750.258 522.268 751.125C522.785 751.975 523.043 752.958 523.043 754.075C523.043 755.225 522.76 756.267 522.193 757.2C521.627 758.133 520.86 758.875 519.893 759.425C518.927 759.975 517.852 760.25 516.668 760.25ZM516.668 757.2C517.252 757.2 517.768 757.067 518.218 756.8C518.668 756.517 519.027 756.142 519.293 755.675C519.56 755.192 519.693 754.65 519.693 754.05C519.693 753.45 519.56 752.917 519.293 752.45C519.027 751.967 518.668 751.592 518.218 751.325C517.768 751.058 517.252 750.925 516.668 750.925C516.085 750.925 515.56 751.067 515.093 751.35C514.643 751.617 514.285 751.983 514.018 752.45C513.768 752.917 513.643 753.45 513.643 754.05C513.643 754.65 513.768 755.192 514.018 755.675C514.285 756.142 514.643 756.517 515.093 756.8C515.56 757.067 516.085 757.2 516.668 757.2Z" fill="black"/>
<path d="M730.65 758.05L737.275 751.125C737.742 750.625 738.117 750.183 738.4 749.8C738.7 749.4 738.917 749.025 739.05 748.675C739.183 748.308 739.25 747.942 739.25 747.575C739.25 746.842 739.008 746.267 738.525 745.85C738.058 745.433 737.45 745.225 736.7 745.225C735.933 745.225 735.25 745.425 734.65 745.825C734.067 746.225 733.517 746.858 733 747.725L730.675 745.75C731.375 744.567 732.242 743.675 733.275 743.075C734.325 742.458 735.525 742.15 736.875 742.15C738.025 742.15 739.025 742.375 739.875 742.825C740.742 743.275 741.408 743.9 741.875 744.7C742.342 745.5 742.575 746.433 742.575 747.5C742.575 748.217 742.483 748.867 742.3 749.45C742.133 750.033 741.842 750.617 741.425 751.2C741.025 751.767 740.467 752.408 739.75 753.125L734.925 758.05H730.65ZM730.65 760V758.05L733.55 757.05H742.95V760H730.65ZM745.129 760L751.304 744.4H754.654L748.654 760H745.129ZM742.704 745.375V742.425H754.654V744.4L753.379 745.375H742.704Z" fill="black"/>
<path d="M962.65 758.05L969.275 751.125C969.742 750.625 970.117 750.183 970.4 749.8C970.7 749.4 970.917 749.025 971.05 748.675C971.183 748.308 971.25 747.942 971.25 747.575C971.25 746.842 971.008 746.267 970.525 745.85C970.058 745.433 969.45 745.225 968.7 745.225C967.933 745.225 967.25 745.425 966.65 745.825C966.067 746.225 965.517 746.858 965 747.725L962.675 745.75C963.375 744.567 964.242 743.675 965.275 743.075C966.325 742.458 967.525 742.15 968.875 742.15C970.025 742.15 971.025 742.375 971.875 742.825C972.742 743.275 973.408 743.9 973.875 744.7C974.342 745.5 974.575 746.433 974.575 747.5C974.575 748.217 974.483 748.867 974.3 749.45C974.133 750.033 973.842 750.617 973.425 751.2C973.025 751.767 972.467 752.408 971.75 753.125L966.925 758.05H962.65ZM962.65 760V758.05L965.55 757.05H974.95V760H962.65ZM981.518 760.25C980.268 760.25 979.185 760.033 978.268 759.6C977.368 759.167 976.66 758.558 976.143 757.775C975.643 756.992 975.393 756.108 975.393 755.125C975.393 754.308 975.552 753.567 975.868 752.9C976.185 752.233 976.635 751.675 977.218 751.225C977.818 750.758 978.518 750.433 979.318 750.25L979.243 751.075C978.577 750.908 978.01 750.617 977.543 750.2C977.077 749.783 976.727 749.292 976.493 748.725C976.26 748.142 976.143 747.542 976.143 746.925C976.143 745.975 976.368 745.142 976.818 744.425C977.285 743.708 977.918 743.15 978.718 742.75C979.535 742.35 980.468 742.15 981.518 742.15C982.568 742.15 983.493 742.35 984.293 742.75C985.093 743.15 985.718 743.708 986.168 744.425C986.635 745.142 986.868 745.975 986.868 746.925C986.868 747.542 986.752 748.142 986.518 748.725C986.285 749.292 985.935 749.783 985.468 750.2C985.018 750.617 984.452 750.908 983.768 751.075L983.693 750.25C984.51 750.433 985.21 750.758 985.793 751.225C986.377 751.675 986.827 752.233 987.143 752.9C987.46 753.567 987.618 754.308 987.618 755.125C987.618 756.108 987.368 756.992 986.868 757.775C986.368 758.558 985.66 759.167 984.743 759.6C983.827 760.033 982.752 760.25 981.518 760.25ZM981.518 757.275C982.068 757.275 982.56 757.167 982.993 756.95C983.427 756.717 983.76 756.4 983.993 756C984.243 755.6 984.368 755.15 984.368 754.65C984.368 754.133 984.243 753.683 983.993 753.3C983.76 752.9 983.427 752.592 982.993 752.375C982.56 752.142 982.068 752.025 981.518 752.025C980.952 752.025 980.452 752.142 980.018 752.375C979.602 752.592 979.268 752.9 979.018 753.3C978.768 753.683 978.643 754.133 978.643 754.65C978.643 755.15 978.768 755.6 979.018 756C979.268 756.4 979.602 756.717 980.018 756.95C980.452 757.167 980.952 757.275 981.518 757.275ZM981.518 749.45C982.168 749.45 982.702 749.242 983.118 748.825C983.535 748.408 983.743 747.875 983.743 747.225C983.743 746.558 983.535 746.017 983.118 745.6C982.702 745.183 982.168 744.975 981.518 744.975C980.868 744.975 980.327 745.183 979.893 745.6C979.477 746.017 979.268 746.55 979.268 747.2C979.268 747.867 979.477 748.408 979.893 748.825C980.327 749.242 980.868 749.45 981.518 749.45Z" fill="black"/>
<path d="M1195.65 758.05L1202.28 751.125C1202.74 750.625 1203.12 750.183 1203.4 749.8C1203.7 749.4 1203.92 749.025 1204.05 748.675C1204.18 748.308 1204.25 747.942 1204.25 747.575C1204.25 746.842 1204.01 746.267 1203.53 745.85C1203.06 745.433 1202.45 745.225 1201.7 745.225C1200.93 745.225 1200.25 745.425 1199.65 745.825C1199.07 746.225 1198.52 746.858 1198 747.725L1195.68 745.75C1196.38 744.567 1197.24 743.675 1198.28 743.075C1199.33 742.458 1200.53 742.15 1201.88 742.15C1203.03 742.15 1204.03 742.375 1204.88 742.825C1205.74 743.275 1206.41 743.9 1206.88 744.7C1207.34 745.5 1207.58 746.433 1207.58 747.5C1207.58 748.217 1207.48 748.867 1207.3 749.45C1207.13 750.033 1206.84 750.617 1206.43 751.2C1206.03 751.767 1205.47 752.408 1204.75 753.125L1199.93 758.05H1195.65ZM1195.65 760V758.05L1198.55 757.05H1207.95V760H1195.65ZM1210.64 760L1215.99 752.55L1217.22 752.175C1217.02 752.558 1216.79 752.9 1216.52 753.2C1216.27 753.483 1215.94 753.7 1215.54 753.85C1215.14 754 1214.62 754.075 1213.97 754.075C1212.94 754.075 1211.99 753.833 1211.12 753.35C1210.27 752.85 1209.59 752.167 1209.07 751.3C1208.55 750.433 1208.29 749.442 1208.29 748.325C1208.29 747.192 1208.58 746.158 1209.14 745.225C1209.71 744.275 1210.48 743.525 1211.44 742.975C1212.41 742.425 1213.49 742.15 1214.67 742.15C1215.87 742.15 1216.94 742.425 1217.89 742.975C1218.86 743.525 1219.62 744.258 1220.17 745.175C1220.74 746.092 1221.02 747.117 1221.02 748.25C1221.02 749.8 1220.48 751.367 1219.39 752.95L1214.52 760H1210.64ZM1214.67 751.475C1215.25 751.475 1215.77 751.342 1216.22 751.075C1216.67 750.808 1217.02 750.442 1217.27 749.975C1217.54 749.492 1217.67 748.958 1217.67 748.375C1217.67 747.758 1217.54 747.217 1217.27 746.75C1217.02 746.283 1216.67 745.917 1216.22 745.65C1215.77 745.367 1215.25 745.225 1214.67 745.225C1214.09 745.225 1213.56 745.367 1213.09 745.65C1212.64 745.917 1212.29 746.283 1212.02 746.75C1211.77 747.217 1211.64 747.758 1211.64 748.375C1211.64 748.975 1211.77 749.508 1212.02 749.975C1212.29 750.442 1212.65 750.808 1213.12 751.075C1213.59 751.342 1214.1 751.475 1214.67 751.475Z" fill="black"/>
<path d="M1434.23 760.25C1433.04 760.25 1431.96 760.042 1430.98 759.625C1429.99 759.192 1429.17 758.575 1428.5 757.775L1430.75 755.55C1431.08 756.05 1431.56 756.45 1432.18 756.75C1432.79 757.05 1433.46 757.2 1434.18 757.2C1434.84 757.2 1435.42 757.083 1435.9 756.85C1436.38 756.6 1436.76 756.258 1437.03 755.825C1437.31 755.375 1437.45 754.858 1437.45 754.275C1437.45 753.658 1437.31 753.133 1437.03 752.7C1436.76 752.267 1436.37 751.933 1435.85 751.7C1435.33 751.467 1434.72 751.35 1434 751.35C1433.68 751.35 1433.36 751.375 1433.03 751.425C1432.69 751.458 1432.41 751.517 1432.18 751.6L1433.68 749.7C1434.09 749.567 1434.5 749.458 1434.9 749.375C1435.32 749.275 1435.7 749.225 1436.05 749.225C1436.95 749.225 1437.76 749.442 1438.48 749.875C1439.21 750.292 1439.78 750.892 1440.2 751.675C1440.63 752.442 1440.85 753.35 1440.85 754.4C1440.85 755.567 1440.58 756.592 1440.03 757.475C1439.48 758.342 1438.7 759.025 1437.7 759.525C1436.72 760.008 1435.56 760.25 1434.23 760.25ZM1432.18 751.6V749.65L1436.68 744.425L1440.58 744.375L1435.93 749.7L1432.18 751.6ZM1429.48 745.375V742.425H1440.58V744.375L1437.8 745.375H1429.48ZM1448.8 760.25C1447.41 760.25 1446.16 759.875 1445.05 759.125C1443.93 758.375 1443.04 757.317 1442.37 755.95C1441.72 754.583 1441.4 752.992 1441.4 751.175C1441.4 749.358 1441.72 747.775 1442.37 746.425C1443.02 745.075 1443.9 744.025 1445 743.275C1446.11 742.525 1447.35 742.15 1448.72 742.15C1450.12 742.15 1451.37 742.525 1452.47 743.275C1453.59 744.025 1454.47 745.083 1455.12 746.45C1455.77 747.8 1456.1 749.392 1456.1 751.225C1456.1 753.042 1455.77 754.633 1455.12 756C1454.47 757.35 1453.6 758.4 1452.5 759.15C1451.4 759.883 1450.16 760.25 1448.8 760.25ZM1448.75 757.175C1449.55 757.175 1450.24 756.95 1450.82 756.5C1451.4 756.05 1451.85 755.383 1452.17 754.5C1452.5 753.617 1452.67 752.517 1452.67 751.2C1452.67 749.883 1452.5 748.783 1452.17 747.9C1451.85 747.017 1451.4 746.358 1450.8 745.925C1450.21 745.475 1449.52 745.25 1448.72 745.25C1447.94 745.25 1447.25 745.475 1446.67 745.925C1446.09 746.358 1445.63 747.017 1445.3 747.9C1444.98 748.767 1444.82 749.858 1444.82 751.175C1444.82 752.508 1444.98 753.617 1445.3 754.5C1445.63 755.383 1446.09 756.05 1446.67 756.5C1447.25 756.95 1447.95 757.175 1448.75 757.175Z" fill="black"/>
<path d="M270.15 166V148.8H273.575V166H270.15ZM264.55 151.45V148.425H279.175V151.45H264.55ZM282.631 166.25C281.565 166.25 280.615 166.025 279.781 165.575C278.965 165.125 278.323 164.5 277.856 163.7C277.39 162.9 277.156 161.975 277.156 160.925V153.925H280.456V160.85C280.456 161.35 280.54 161.783 280.706 162.15C280.873 162.5 281.123 162.767 281.456 162.95C281.79 163.133 282.181 163.225 282.631 163.225C283.315 163.225 283.848 163.017 284.231 162.6C284.615 162.183 284.806 161.6 284.806 160.85V153.925H288.081V160.925C288.081 161.992 287.848 162.925 287.381 163.725C286.931 164.525 286.29 165.15 285.456 165.6C284.64 166.033 283.698 166.25 282.631 166.25ZM295.214 166.25C293.948 166.25 292.823 165.983 291.839 165.45C290.856 164.9 290.073 164.15 289.489 163.2C288.923 162.25 288.639 161.167 288.639 159.95C288.639 158.75 288.914 157.683 289.464 156.75C290.031 155.8 290.798 155.05 291.764 154.5C292.731 153.933 293.806 153.65 294.989 153.65C296.156 153.65 297.181 153.917 298.064 154.45C298.964 154.967 299.664 155.683 300.164 156.6C300.681 157.5 300.939 158.525 300.939 159.675C300.939 159.892 300.923 160.117 300.889 160.35C300.873 160.567 300.831 160.817 300.764 161.1L290.614 161.125V158.675L299.239 158.65L297.914 159.675C297.881 158.958 297.748 158.358 297.514 157.875C297.298 157.392 296.973 157.025 296.539 156.775C296.123 156.508 295.606 156.375 294.989 156.375C294.339 156.375 293.773 156.525 293.289 156.825C292.806 157.108 292.431 157.517 292.164 158.05C291.914 158.567 291.789 159.183 291.789 159.9C291.789 160.633 291.923 161.275 292.189 161.825C292.473 162.358 292.873 162.775 293.389 163.075C293.906 163.358 294.506 163.5 295.189 163.5C295.806 163.5 296.364 163.4 296.864 163.2C297.364 162.983 297.798 162.667 298.164 162.25L300.089 164.175C299.506 164.858 298.789 165.375 297.939 165.725C297.106 166.075 296.198 166.25 295.214 166.25Z" fill="black"/>
<path d="M503.25 166L497.55 148.425H500.9L505.125 161.95H504L508.15 148.425H510.675L514.825 161.95H513.675L517.925 148.425H521.275L515.55 166H513.025L508.85 152.5H509.95L505.8 166H503.25ZM526.12 166.25C524.853 166.25 523.728 165.983 522.745 165.45C521.761 164.9 520.978 164.15 520.395 163.2C519.828 162.25 519.545 161.167 519.545 159.95C519.545 158.75 519.82 157.683 520.37 156.75C520.936 155.8 521.703 155.05 522.67 154.5C523.636 153.933 524.711 153.65 525.895 153.65C527.061 153.65 528.086 153.917 528.97 154.45C529.87 154.967 530.57 155.683 531.07 156.6C531.586 157.5 531.845 158.525 531.845 159.675C531.845 159.892 531.828 160.117 531.795 160.35C531.778 160.567 531.736 160.817 531.67 161.1L521.52 161.125V158.675L530.145 158.65L528.82 159.675C528.786 158.958 528.653 158.358 528.42 157.875C528.203 157.392 527.878 157.025 527.445 156.775C527.028 156.508 526.511 156.375 525.895 156.375C525.245 156.375 524.678 156.525 524.195 156.825C523.711 157.108 523.336 157.517 523.07 158.05C522.82 158.567 522.695 159.183 522.695 159.9C522.695 160.633 522.828 161.275 523.095 161.825C523.378 162.358 523.778 162.775 524.295 163.075C524.811 163.358 525.411 163.5 526.095 163.5C526.711 163.5 527.27 163.4 527.77 163.2C528.27 162.983 528.703 162.667 529.07 162.25L530.995 164.175C530.411 164.858 529.695 165.375 528.845 165.725C528.011 166.075 527.103 166.25 526.12 166.25ZM537.72 166.25C536.603 166.25 535.603 165.975 534.72 165.425C533.837 164.875 533.137 164.125 532.62 163.175C532.12 162.225 531.87 161.158 531.87 159.975C531.87 158.775 532.12 157.7 532.62 156.75C533.137 155.8 533.828 155.05 534.695 154.5C535.578 153.95 536.587 153.675 537.72 153.675C538.587 153.675 539.362 153.85 540.045 154.2C540.745 154.55 541.303 155.042 541.72 155.675C542.153 156.292 542.387 156.992 542.42 157.775V162.075C542.387 162.858 542.162 163.567 541.745 164.2C541.328 164.833 540.77 165.333 540.07 165.7C539.37 166.067 538.587 166.25 537.72 166.25ZM538.27 163.225C538.887 163.225 539.42 163.092 539.87 162.825C540.337 162.542 540.695 162.158 540.945 161.675C541.212 161.175 541.345 160.6 541.345 159.95C541.345 159.317 541.212 158.758 540.945 158.275C540.695 157.775 540.337 157.392 539.87 157.125C539.42 156.842 538.895 156.7 538.295 156.7C537.678 156.7 537.137 156.842 536.67 157.125C536.22 157.408 535.862 157.792 535.595 158.275C535.345 158.758 535.22 159.317 535.22 159.95C535.22 160.6 535.345 161.175 535.595 161.675C535.862 162.158 536.228 162.542 536.695 162.825C537.162 163.092 537.687 163.225 538.27 163.225ZM544.42 166H541.17V162.75L541.695 159.8L541.145 156.9V147.925H544.42V166Z" fill="black"/>
<path d="M736.15 166V148.8H739.575V166H736.15ZM730.55 151.45V148.425H745.175V151.45H730.55ZM754.048 166V159.075C754.048 158.358 753.823 157.775 753.373 157.325C752.923 156.875 752.339 156.65 751.623 156.65C751.156 156.65 750.739 156.75 750.373 156.95C750.006 157.15 749.714 157.433 749.498 157.8C749.298 158.167 749.198 158.592 749.198 159.075L747.923 158.425C747.923 157.475 748.123 156.65 748.523 155.95C748.923 155.233 749.473 154.675 750.173 154.275C750.889 153.875 751.706 153.675 752.623 153.675C753.539 153.675 754.348 153.875 755.048 154.275C755.764 154.675 756.323 155.225 756.723 155.925C757.123 156.625 757.323 157.433 757.323 158.35V166H754.048ZM745.923 166V147.925H749.198V166H745.923ZM763.861 166.25C762.794 166.25 761.844 166.025 761.011 165.575C760.194 165.125 759.552 164.5 759.086 163.7C758.619 162.9 758.386 161.975 758.386 160.925V153.925H761.686V160.85C761.686 161.35 761.769 161.783 761.936 162.15C762.102 162.5 762.352 162.767 762.686 162.95C763.019 163.133 763.411 163.225 763.861 163.225C764.544 163.225 765.077 163.017 765.461 162.6C765.844 162.183 766.036 161.6 766.036 160.85V153.925H769.311V160.925C769.311 161.992 769.077 162.925 768.611 163.725C768.161 164.525 767.519 165.15 766.686 165.6C765.869 166.033 764.927 166.25 763.861 166.25Z" fill="black"/>
<path d="M963.8 166V148.425H967.2V166H963.8ZM966.3 158.8V155.775H975.15V158.8H966.3ZM966.3 151.425V148.425H975.575V151.425H966.3ZM976.653 166V153.925H979.928V166H976.653ZM979.928 159.325L978.653 158.475C978.803 156.992 979.236 155.825 979.953 154.975C980.67 154.108 981.703 153.675 983.053 153.675C983.636 153.675 984.161 153.775 984.628 153.975C985.095 154.158 985.52 154.467 985.903 154.9L983.853 157.25C983.67 157.05 983.445 156.9 983.178 156.8C982.928 156.7 982.636 156.65 982.303 156.65C981.603 156.65 981.028 156.875 980.578 157.325C980.145 157.758 979.928 158.425 979.928 159.325ZM985.804 166V153.925H989.104V166H985.804ZM987.454 151.975C986.92 151.975 986.479 151.8 986.129 151.45C985.779 151.083 985.604 150.633 985.604 150.1C985.604 149.583 985.779 149.142 986.129 148.775C986.479 148.408 986.92 148.225 987.454 148.225C988.004 148.225 988.445 148.408 988.779 148.775C989.129 149.142 989.304 149.583 989.304 150.1C989.304 150.633 989.129 151.083 988.779 151.45C988.445 151.8 988.004 151.975 987.454 151.975Z" fill="black"/>
<path d="M1201.9 166.25C1200.48 166.25 1199.27 166.008 1198.25 165.525C1197.25 165.042 1196.34 164.317 1195.53 163.35L1197.78 161.1C1198.29 161.783 1198.89 162.317 1199.58 162.7C1200.26 163.067 1201.09 163.25 1202.08 163.25C1202.96 163.25 1203.66 163.075 1204.18 162.725C1204.71 162.375 1204.98 161.892 1204.98 161.275C1204.98 160.742 1204.83 160.308 1204.53 159.975C1204.23 159.642 1203.83 159.358 1203.33 159.125C1202.84 158.892 1202.3 158.683 1201.7 158.5C1201.12 158.3 1200.53 158.075 1199.93 157.825C1199.34 157.575 1198.8 157.267 1198.3 156.9C1197.82 156.517 1197.43 156.033 1197.13 155.45C1196.83 154.85 1196.68 154.1 1196.68 153.2C1196.68 152.133 1196.93 151.225 1197.45 150.475C1197.97 149.725 1198.68 149.15 1199.58 148.75C1200.48 148.35 1201.49 148.15 1202.63 148.15C1203.83 148.15 1204.91 148.375 1205.88 148.825C1206.84 149.275 1207.63 149.858 1208.25 150.575L1206 152.825C1205.48 152.258 1204.95 151.842 1204.4 151.575C1203.87 151.308 1203.26 151.175 1202.58 151.175C1201.79 151.175 1201.18 151.325 1200.73 151.625C1200.28 151.925 1200.05 152.358 1200.05 152.925C1200.05 153.408 1200.2 153.8 1200.5 154.1C1200.8 154.4 1201.19 154.658 1201.68 154.875C1202.18 155.092 1202.72 155.3 1203.3 155.5C1203.9 155.7 1204.49 155.925 1205.08 156.175C1205.68 156.425 1206.22 156.75 1206.7 157.15C1207.2 157.55 1207.6 158.067 1207.9 158.7C1208.2 159.317 1208.35 160.083 1208.35 161C1208.35 162.633 1207.78 163.917 1206.63 164.85C1205.48 165.783 1203.9 166.25 1201.9 166.25ZM1214.39 166.25C1213.29 166.25 1212.29 165.975 1211.41 165.425C1210.53 164.875 1209.84 164.125 1209.34 163.175C1208.84 162.225 1208.59 161.158 1208.59 159.975C1208.59 158.775 1208.84 157.7 1209.34 156.75C1209.84 155.8 1210.53 155.05 1211.41 154.5C1212.29 153.95 1213.29 153.675 1214.39 153.675C1215.25 153.675 1216.03 153.85 1216.71 154.2C1217.39 154.55 1217.94 155.042 1218.34 155.675C1218.75 156.292 1218.98 156.992 1219.01 157.775V162.125C1218.98 162.925 1218.75 163.633 1218.34 164.25C1217.94 164.867 1217.39 165.358 1216.71 165.725C1216.03 166.075 1215.25 166.25 1214.39 166.25ZM1214.99 163.225C1215.9 163.225 1216.64 162.925 1217.21 162.325C1217.78 161.708 1218.06 160.917 1218.06 159.95C1218.06 159.317 1217.93 158.758 1217.66 158.275C1217.41 157.775 1217.05 157.392 1216.59 157.125C1216.14 156.842 1215.6 156.7 1214.99 156.7C1214.39 156.7 1213.85 156.842 1213.39 157.125C1212.94 157.392 1212.58 157.775 1212.31 158.275C1212.06 158.758 1211.94 159.317 1211.94 159.95C1211.94 160.6 1212.06 161.175 1212.31 161.675C1212.58 162.158 1212.94 162.542 1213.39 162.825C1213.85 163.092 1214.39 163.225 1214.99 163.225ZM1217.89 166V162.75L1218.41 159.8L1217.89 156.9V153.925H1221.14V166H1217.89ZM1224.56 166V148.9H1227.83V166H1224.56ZM1221.73 156.8V153.925H1230.66V156.8H1221.73Z" fill="black"/>
<path d="M1434.9 166.25C1433.48 166.25 1432.27 166.008 1431.25 165.525C1430.25 165.042 1429.34 164.317 1428.53 163.35L1430.78 161.1C1431.29 161.783 1431.89 162.317 1432.58 162.7C1433.26 163.067 1434.09 163.25 1435.08 163.25C1435.96 163.25 1436.66 163.075 1437.18 162.725C1437.71 162.375 1437.98 161.892 1437.98 161.275C1437.98 160.742 1437.83 160.308 1437.53 159.975C1437.23 159.642 1436.83 159.358 1436.33 159.125C1435.84 158.892 1435.3 158.683 1434.7 158.5C1434.12 158.3 1433.53 158.075 1432.93 157.825C1432.34 157.575 1431.8 157.267 1431.3 156.9C1430.82 156.517 1430.43 156.033 1430.13 155.45C1429.83 154.85 1429.68 154.1 1429.68 153.2C1429.68 152.133 1429.93 151.225 1430.45 150.475C1430.97 149.725 1431.68 149.15 1432.58 148.75C1433.48 148.35 1434.49 148.15 1435.63 148.15C1436.83 148.15 1437.91 148.375 1438.88 148.825C1439.84 149.275 1440.63 149.858 1441.25 150.575L1439 152.825C1438.48 152.258 1437.95 151.842 1437.4 151.575C1436.87 151.308 1436.26 151.175 1435.58 151.175C1434.79 151.175 1434.18 151.325 1433.73 151.625C1433.28 151.925 1433.05 152.358 1433.05 152.925C1433.05 153.408 1433.2 153.8 1433.5 154.1C1433.8 154.4 1434.19 154.658 1434.68 154.875C1435.18 155.092 1435.72 155.3 1436.3 155.5C1436.9 155.7 1437.49 155.925 1438.08 156.175C1438.68 156.425 1439.22 156.75 1439.7 157.15C1440.2 157.55 1440.6 158.067 1440.9 158.7C1441.2 159.317 1441.35 160.083 1441.35 161C1441.35 162.633 1440.78 163.917 1439.63 164.85C1438.48 165.783 1436.9 166.25 1434.9 166.25ZM1447.58 166.25C1446.52 166.25 1445.57 166.025 1444.73 165.575C1443.92 165.125 1443.28 164.5 1442.81 163.7C1442.34 162.9 1442.11 161.975 1442.11 160.925V153.925H1445.41V160.85C1445.41 161.35 1445.49 161.783 1445.66 162.15C1445.83 162.5 1446.08 162.767 1446.41 162.95C1446.74 163.133 1447.13 163.225 1447.58 163.225C1448.27 163.225 1448.8 163.017 1449.18 162.6C1449.57 162.183 1449.76 161.6 1449.76 160.85V153.925H1453.03V160.925C1453.03 161.992 1452.8 162.925 1452.33 163.725C1451.88 164.525 1451.24 165.15 1450.41 165.6C1449.59 166.033 1448.65 166.25 1447.58 166.25ZM1462.52 166V159.075C1462.52 158.358 1462.29 157.775 1461.84 157.325C1461.39 156.875 1460.81 156.65 1460.09 156.65C1459.62 156.65 1459.21 156.75 1458.84 156.95C1458.47 157.15 1458.18 157.433 1457.97 157.8C1457.77 158.167 1457.67 158.592 1457.67 159.075L1456.39 158.425C1456.39 157.475 1456.59 156.65 1456.99 155.95C1457.41 155.233 1457.97 154.675 1458.69 154.275C1459.42 153.875 1460.25 153.675 1461.17 153.675C1462.05 153.675 1462.84 153.9 1463.54 154.35C1464.24 154.783 1464.79 155.358 1465.19 156.075C1465.59 156.775 1465.79 157.533 1465.79 158.35V166H1462.52ZM1454.39 166V153.925H1457.67V166H1454.39Z" fill="black"/>
<line x1="1.74846e-07" y1="81" x2="1673" y2="81.0001" stroke="black" stroke-width="4"/>
<line x1="1.74846e-07" y1="135" x2="1673" y2="135" stroke="black" stroke-width="4"/>
<line x1="1.74846e-07" y1="135" x2="1673" y2="135" stroke="black" stroke-width="4"/>
<line x1="1.74846e-07" y1="863" x2="1673" y2="863" stroke="black" stroke-width="4"/>
<line x1="1.74846e-07" y1="178" x2="1673" y2="178" stroke="black" stroke-width="4"/>
<line x1="20.5" y1="865" x2="20.5" y2="81" stroke="black" stroke-width="3"/>
<line x1="1650.5" y1="865" x2="1650.5" y2="81" stroke="black" stroke-width="3"/>
<line x1="1581" y1="81" x2="1581" y2="135" stroke="black" stroke-width="4"/>
<line x1="1650" y1="81" x2="1650" y2="135" stroke="black" stroke-width="4"/>
<path d="M32.025 482V464.425H35.375V482H32.025ZM28.575 467.375V464.425H35.125V467.375H28.575ZM44.2297 482.25C42.8464 482.25 41.5964 481.875 40.4797 481.125C39.363 480.375 38.4714 479.317 37.8047 477.95C37.1547 476.583 36.8297 474.992 36.8297 473.175C36.8297 471.358 37.1547 469.775 37.8047 468.425C38.4547 467.075 39.3297 466.025 40.4297 465.275C41.5464 464.525 42.788 464.15 44.1547 464.15C45.5547 464.15 46.8047 464.525 47.9047 465.275C49.0214 466.025 49.9047 467.083 50.5547 468.45C51.2047 469.8 51.5297 471.392 51.5297 473.225C51.5297 475.042 51.2047 476.633 50.5547 478C49.9047 479.35 49.0297 480.4 47.9297 481.15C46.8297 481.883 45.5964 482.25 44.2297 482.25ZM44.1797 479.175C44.9797 479.175 45.6714 478.95 46.2547 478.5C46.838 478.05 47.288 477.383 47.6047 476.5C47.938 475.617 48.1047 474.517 48.1047 473.2C48.1047 471.883 47.938 470.783 47.6047 469.9C47.288 469.017 46.8297 468.358 46.2297 467.925C45.6464 467.475 44.9547 467.25 44.1547 467.25C43.3714 467.25 42.688 467.475 42.1047 467.925C41.5214 468.358 41.063 469.017 40.7297 469.9C40.413 470.767 40.2547 471.858 40.2547 473.175C40.2547 474.508 40.413 475.617 40.7297 476.5C41.063 477.383 41.5214 478.05 42.1047 478.5C42.688 478.95 43.3797 479.175 44.1797 479.175Z" fill="black"/>
<path d="M268.025 482V464.425H271.375V482H268.025ZM264.575 467.375V464.425H271.125V467.375H264.575ZM275.955 482V464.425H279.305V482H275.955ZM272.505 467.375V464.425H279.055V467.375H272.505Z" fill="black"/>
<path d="M501.025 482V464.425H504.375V482H501.025ZM497.575 467.375V464.425H504.125V467.375H497.575ZM505.58 480.05L512.205 473.125C512.671 472.625 513.046 472.183 513.33 471.8C513.63 471.4 513.846 471.025 513.98 470.675C514.113 470.308 514.18 469.942 514.18 469.575C514.18 468.842 513.938 468.267 513.455 467.85C512.988 467.433 512.38 467.225 511.63 467.225C510.863 467.225 510.18 467.425 509.58 467.825C508.996 468.225 508.446 468.858 507.93 469.725L505.605 467.75C506.305 466.567 507.171 465.675 508.205 465.075C509.255 464.458 510.455 464.15 511.805 464.15C512.955 464.15 513.955 464.375 514.805 464.825C515.671 465.275 516.338 465.9 516.805 466.7C517.271 467.5 517.505 468.433 517.505 469.5C517.505 470.217 517.413 470.867 517.23 471.45C517.063 472.033 516.771 472.617 516.355 473.2C515.955 473.767 515.396 474.408 514.68 475.125L509.855 480.05H505.58ZM505.58 482V480.05L508.48 479.05H517.88V482H505.58Z" fill="black"/>
<path d="M734.025 482V464.425H737.375V482H734.025ZM730.575 467.375V464.425H737.125V467.375H730.575ZM744.155 482.25C742.971 482.25 741.888 482.042 740.905 481.625C739.921 481.192 739.096 480.575 738.43 479.775L740.68 477.55C741.013 478.05 741.488 478.45 742.105 478.75C742.721 479.05 743.388 479.2 744.105 479.2C744.771 479.2 745.346 479.083 745.83 478.85C746.313 478.6 746.688 478.258 746.955 477.825C747.238 477.375 747.38 476.858 747.38 476.275C747.38 475.658 747.238 475.133 746.955 474.7C746.688 474.267 746.296 473.933 745.78 473.7C745.263 473.467 744.646 473.35 743.93 473.35C743.613 473.35 743.288 473.375 742.955 473.425C742.621 473.458 742.338 473.517 742.105 473.6L743.605 471.7C744.021 471.567 744.43 471.458 744.83 471.375C745.246 471.275 745.63 471.225 745.98 471.225C746.88 471.225 747.688 471.442 748.405 471.875C749.138 472.292 749.713 472.892 750.13 473.675C750.563 474.442 750.78 475.35 750.78 476.4C750.78 477.567 750.505 478.592 749.955 479.475C749.405 480.342 748.63 481.025 747.63 481.525C746.646 482.008 745.488 482.25 744.155 482.25ZM742.105 473.6V471.65L746.605 466.425L750.505 466.375L745.855 471.7L742.105 473.6ZM739.405 467.375V464.425H750.505V466.375L747.73 467.375H739.405Z" fill="black"/>
<path d="M966.025 482V464.425H969.375V482H966.025ZM962.575 467.375V464.425H969.125V467.375H962.575ZM970.555 475.8L976.555 464.425H980.305L974.155 475.8H970.555ZM970.555 477.8V475.8L971.805 474.825H984.405V477.8H970.555ZM978.855 482V470.8H982.205V482H978.855Z" fill="black"/>
</svg>
