<svg width="1661" height="507" viewBox="0 0 1661 507" fill="none" xmlns="http://www.w3.org/2000/svg">
<rect y="82" width="366" height="425" fill="#E7E7E7"/>
<rect x="378" y="82" width="367" height="425" fill="#E7E7E7"/>
<rect x="757" y="82" width="367" height="425" fill="#E7E7E7"/>
<rect x="1136" y="82" width="366" height="425" fill="#E7E7E7"/>
<rect x="1514" y="82" width="87" height="425" fill="#E7E7E7"/>
<path d="M1636 278L1657 294L1636 310" stroke="black" stroke-width="4"/>
<path d="M3.6 50V14.85H8.4L22.65 37.65H19.9L34.1 14.85H38.9V50H32.15V26.5L33.45 26.9L23.55 42.8H18.95L9.05 26.9L10.4 26.5V50H3.6ZM60.0305 50.55C57.4638 50.55 55.0638 50.0833 52.8305 49.15C50.6305 48.2167 48.6971 46.9333 47.0305 45.3C45.3971 43.6333 44.1138 41.7 43.1805 39.5C42.2471 37.2667 41.7805 34.8833 41.7805 32.35C41.7805 29.8167 42.2305 27.4667 43.1305 25.3C44.0638 23.1 45.3471 21.1833 46.9805 19.55C48.6471 17.8833 50.5805 16.6 52.7805 15.7C54.9805 14.7667 57.3638 14.3 59.9305 14.3C62.5305 14.3 64.9305 14.7667 67.1305 15.7C69.3305 16.6 71.2471 17.8833 72.8805 19.55C74.5471 21.1833 75.8471 23.1 76.7805 25.3C77.7138 27.5 78.1805 29.8667 78.1805 32.4C78.1805 34.9333 77.7138 37.3 76.7805 39.5C75.8471 41.7 74.5471 43.6333 72.8805 45.3C71.2471 46.9333 69.3305 48.2167 67.1305 49.15C64.9638 50.0833 62.5971 50.55 60.0305 50.55ZM59.9305 44.2C62.1971 44.2 64.1638 43.7 65.8305 42.7C67.4971 41.7 68.7971 40.3167 69.7305 38.55C70.6971 36.7833 71.1805 34.7167 71.1805 32.35C71.1805 30.6167 70.9138 29.0333 70.3805 27.6C69.8471 26.1667 69.0805 24.9333 68.0805 23.9C67.0805 22.8333 65.8971 22.0167 64.5305 21.45C63.1638 20.8833 61.6305 20.6 59.9305 20.6C57.7305 20.6 55.7805 21.1 54.0805 22.1C52.4138 23.0667 51.0971 24.4333 50.1305 26.2C49.1971 27.9667 48.7305 30.0167 48.7305 32.35C48.7305 34.1167 48.9971 35.7333 49.5305 37.2C50.0971 38.6667 50.8638 39.9167 51.8305 40.95C52.8305 41.9833 54.0138 42.7833 55.3805 43.35C56.7805 43.9167 58.2971 44.2 59.9305 44.2ZM90.4406 50.5C87.6073 50.5 85.174 50.0167 83.1406 49.05C81.1406 48.0833 79.324 46.6333 77.6906 44.7L82.1906 40.2C83.224 41.5667 84.424 42.6333 85.7906 43.4C87.1573 44.1333 88.824 44.5 90.7906 44.5C92.5573 44.5 93.9573 44.15 94.9906 43.45C96.0573 42.75 96.5906 41.7833 96.5906 40.55C96.5906 39.4833 96.2906 38.6167 95.6906 37.95C95.0906 37.2833 94.2906 36.7167 93.2906 36.25C92.324 35.7833 91.2406 35.3667 90.0406 35C88.874 34.6 87.6906 34.15 86.4906 33.65C85.324 33.15 84.2406 32.5333 83.2406 31.8C82.274 31.0333 81.4906 30.0667 80.8906 28.9C80.2906 27.7 79.9906 26.2 79.9906 24.4C79.9906 22.2667 80.5073 20.45 81.5406 18.95C82.574 17.45 83.9906 16.3 85.7906 15.5C87.5906 14.7 89.624 14.3 91.8906 14.3C94.2906 14.3 96.4573 14.75 98.3906 15.65C100.324 16.55 101.907 17.7167 103.141 19.15L98.6406 23.65C97.6073 22.5167 96.5406 21.6833 95.4406 21.15C94.374 20.6167 93.1573 20.35 91.7906 20.35C90.224 20.35 88.9906 20.65 88.0906 21.25C87.1906 21.85 86.7406 22.7167 86.7406 23.85C86.7406 24.8167 87.0406 25.6 87.6406 26.2C88.2406 26.8 89.024 27.3167 89.9906 27.75C90.9906 28.1833 92.074 28.6 93.2406 29C94.4406 29.4 95.624 29.85 96.7906 30.35C97.9906 30.85 99.074 31.5 100.041 32.3C101.041 33.1 101.841 34.1333 102.441 35.4C103.041 36.6333 103.341 38.1667 103.341 40C103.341 43.2667 102.191 45.8333 99.8906 47.7C97.5906 49.5667 94.4406 50.5 90.4406 50.5ZM116.723 50L130.873 14.85H136.423L150.523 50H143.273L132.373 21.15H134.873L123.823 50H116.723ZM124.223 43.45V37.75H143.123V43.45H124.223ZM151.865 50V25.85H158.415V50H151.865ZM158.415 36.65L155.865 34.95C156.165 31.9833 157.032 29.65 158.465 27.95C159.898 26.2167 161.965 25.35 164.665 25.35C165.832 25.35 166.882 25.55 167.815 25.95C168.748 26.3167 169.598 26.9333 170.365 27.8L166.265 32.5C165.898 32.1 165.448 31.8 164.915 31.6C164.415 31.4 163.832 31.3 163.165 31.3C161.765 31.3 160.615 31.75 159.715 32.65C158.848 33.5167 158.415 34.85 158.415 36.65ZM180.882 50.5C178.415 50.5 176.199 49.95 174.232 48.85C172.265 47.75 170.715 46.25 169.582 44.35C168.449 42.45 167.882 40.3167 167.882 37.95C167.882 35.55 168.449 33.4 169.582 31.5C170.715 29.6 172.265 28.1 174.232 27C176.232 25.8667 178.449 25.3 180.882 25.3C182.782 25.3 184.532 25.65 186.132 26.35C187.732 27.05 189.115 28.05 190.282 29.35L186.082 33.6C185.449 32.9 184.682 32.3667 183.782 32C182.915 31.6333 181.949 31.45 180.882 31.45C179.682 31.45 178.599 31.7333 177.632 32.3C176.699 32.8333 175.949 33.5833 175.382 34.55C174.849 35.4833 174.582 36.6 174.582 37.9C174.582 39.1667 174.849 40.3 175.382 41.3C175.949 42.2667 176.699 43.0333 177.632 43.6C178.599 44.1333 179.682 44.4 180.882 44.4C181.982 44.4 182.965 44.2167 183.832 43.85C184.732 43.45 185.499 42.8833 186.132 42.15L190.382 46.4C189.149 47.7333 187.732 48.75 186.132 49.45C184.532 50.15 182.782 50.5 180.882 50.5ZM207.841 50V36.15C207.841 34.7167 207.391 33.55 206.491 32.65C205.591 31.75 204.425 31.3 202.991 31.3C202.058 31.3 201.225 31.5 200.491 31.9C199.758 32.3 199.175 32.8667 198.741 33.6C198.341 34.3333 198.141 35.1833 198.141 36.15L195.591 34.85C195.591 32.95 195.991 31.3 196.791 29.9C197.591 28.4667 198.691 27.35 200.091 26.55C201.525 25.75 203.158 25.35 204.991 25.35C206.825 25.35 208.441 25.75 209.841 26.55C211.275 27.35 212.391 28.45 213.191 29.85C213.991 31.25 214.391 32.8667 214.391 34.7V50H207.841ZM191.591 50V13.85H198.141V50H191.591ZM217.168 50V25.85H223.768V50H217.168ZM220.468 21.95C219.401 21.95 218.518 21.6 217.818 20.9C217.118 20.1667 216.768 19.2667 216.768 18.2C216.768 17.1667 217.118 16.2833 217.818 15.55C218.518 14.8167 219.401 14.45 220.468 14.45C221.568 14.45 222.451 14.8167 223.118 15.55C223.818 16.2833 224.168 17.1667 224.168 18.2C224.168 19.2667 223.818 20.1667 223.118 20.9C222.451 21.6 221.568 21.95 220.468 21.95ZM234.92 50L224.27 25.85H231.47L239.12 45.75H235.57L243.27 25.85H250.22L239.62 50H234.92ZM261.608 50.5C259.075 50.5 256.825 49.9667 254.858 48.9C252.892 47.8 251.325 46.3 250.158 44.4C249.025 42.5 248.458 40.3333 248.458 37.9C248.458 35.5 249.008 33.3667 250.108 31.5C251.242 29.6 252.775 28.1 254.708 27C256.642 25.8667 258.792 25.3 261.158 25.3C263.492 25.3 265.542 25.8333 267.308 26.9C269.108 27.9333 270.508 29.3667 271.508 31.2C272.542 33 273.058 35.05 273.058 37.35C273.058 37.7833 273.025 38.2333 272.958 38.7C272.925 39.1333 272.842 39.6333 272.708 40.2L252.408 40.25V35.35L269.658 35.3L267.008 37.35C266.942 35.9167 266.675 34.7167 266.208 33.75C265.775 32.7833 265.125 32.05 264.258 31.55C263.425 31.0167 262.392 30.75 261.158 30.75C259.858 30.75 258.725 31.05 257.758 31.65C256.792 32.2167 256.042 33.0333 255.508 34.1C255.008 35.1333 254.758 36.3667 254.758 37.8C254.758 39.2667 255.025 40.55 255.558 41.65C256.125 42.7167 256.925 43.55 257.958 44.15C258.992 44.7167 260.192 45 261.558 45C262.792 45 263.908 44.8 264.908 44.4C265.908 43.9667 266.775 43.3333 267.508 42.5L271.358 46.35C270.192 47.7167 268.758 48.75 267.058 49.45C265.392 50.15 263.575 50.5 261.608 50.5Z" fill="black"/>
</svg>
