<svg width="1673" height="811" viewBox="0 0 1673 811" fill="none" xmlns="http://www.w3.org/2000/svg">
<rect y="80" width="1673" height="731" fill="#E7E7E7"/>
<path d="M23.8 50.5C20.9667 50.5 18.5333 50.0167 16.5 49.05C14.5 48.0833 12.6833 46.6333 11.05 44.7L15.55 40.2C16.5833 41.5667 17.7833 42.6333 19.15 43.4C20.5167 44.1333 22.1833 44.5 24.15 44.5C25.9167 44.5 27.3167 44.15 28.35 43.45C29.4167 42.75 29.95 41.7833 29.95 40.55C29.95 39.4833 29.65 38.6167 29.05 37.95C28.45 37.2833 27.65 36.7167 26.65 36.25C25.6833 35.7833 24.6 35.3667 23.4 35C22.2333 34.6 21.05 34.15 19.85 33.65C18.6833 33.15 17.6 32.5333 16.6 31.8C15.6333 31.0333 14.85 30.0667 14.25 28.9C13.65 27.7 13.35 26.2 13.35 24.4C13.35 22.2667 13.8667 20.45 14.9 18.95C15.9333 17.45 17.35 16.3 19.15 15.5C20.95 14.7 22.9833 14.3 25.25 14.3C27.65 14.3 29.8167 14.75 31.75 15.65C33.6833 16.55 35.2667 17.7167 36.5 19.15L32 23.65C30.9667 22.5167 29.9 21.6833 28.8 21.15C27.7333 20.6167 26.5167 20.35 25.15 20.35C23.5833 20.35 22.35 20.65 21.45 21.25C20.55 21.85 20.1 22.7167 20.1 23.85C20.1 24.8167 20.4 25.6 21 26.2C21.6 26.8 22.3833 27.3167 23.35 27.75C24.35 28.1833 25.4333 28.6 26.6 29C27.8 29.4 28.9833 29.85 30.15 30.35C31.35 30.85 32.4333 31.5 33.4 32.3C34.4 33.1 35.2 34.1333 35.8 35.4C36.4 36.6333 36.7 38.1667 36.7 40C36.7 43.2667 35.55 45.8333 33.25 47.7C30.95 49.5667 27.8 50.5 23.8 50.5ZM50.0215 50.5C47.5882 50.5 45.3882 49.95 43.4215 48.85C41.4882 47.7167 39.9382 46.2 38.7715 44.3C37.6382 42.3667 37.0715 40.2167 37.0715 37.85C37.0715 35.4833 37.6382 33.3667 38.7715 31.5C39.9048 29.6 41.4548 28.1 43.4215 27C45.3882 25.8667 47.5715 25.3 49.9715 25.3C52.4382 25.3 54.6382 25.8667 56.5715 27C58.5382 28.1 60.0882 29.6 61.2215 31.5C62.3548 33.3667 62.9215 35.4833 62.9215 37.85C62.9215 40.2167 62.3548 42.3667 61.2215 44.3C60.0882 46.2 58.5382 47.7167 56.5715 48.85C54.6382 49.95 52.4548 50.5 50.0215 50.5ZM49.9715 44.4C51.2048 44.4 52.2882 44.1333 53.2215 43.6C54.1882 43.0333 54.9215 42.2667 55.4215 41.3C55.9548 40.3 56.2215 39.1667 56.2215 37.9C56.2215 36.6333 55.9548 35.5167 55.4215 34.55C54.8882 33.5833 54.1548 32.8333 53.2215 32.3C52.2882 31.7333 51.2048 31.45 49.9715 31.45C48.7715 31.45 47.7048 31.7333 46.7715 32.3C45.8382 32.8333 45.1048 33.5833 44.5715 34.55C44.0382 35.5167 43.7715 36.6333 43.7715 37.9C43.7715 39.1667 44.0382 40.3 44.5715 41.3C45.1048 42.2667 45.8382 43.0333 46.7715 43.6C47.7048 44.1333 48.7715 44.4 49.9715 44.4ZM64.6383 50V25.85H71.1883V50H64.6383ZM80.3883 50V35.75C80.3883 34.35 79.9383 33.2667 79.0383 32.5C78.1716 31.7 77.0883 31.3 75.7883 31.3C74.9216 31.3 74.1383 31.4833 73.4383 31.85C72.7383 32.1833 72.1883 32.6833 71.7883 33.35C71.3883 34.0167 71.1883 34.8167 71.1883 35.75L68.6383 34.5C68.6383 32.6333 69.0383 31.0167 69.8383 29.65C70.6716 28.2833 71.7883 27.2333 73.1883 26.5C74.5883 25.7333 76.1716 25.35 77.9383 25.35C79.6049 25.35 81.1216 25.7333 82.4883 26.5C83.8549 27.2333 84.9383 28.2833 85.7383 29.65C86.5383 30.9833 86.9383 32.6 86.9383 34.5V50H80.3883ZM96.1383 50V35.75C96.1383 34.35 95.6883 33.2667 94.7883 32.5C93.9216 31.7 92.8383 31.3 91.5383 31.3C90.7049 31.3 89.9216 31.4833 89.1883 31.85C88.4883 32.1833 87.9383 32.6833 87.5383 33.35C87.1383 34.0167 86.9383 34.8167 86.9383 35.75L83.1883 34.85C83.3216 32.9167 83.8383 31.25 84.7383 29.85C85.6383 28.4167 86.8216 27.3167 88.2883 26.55C89.7549 25.75 91.3883 25.35 93.1883 25.35C94.9883 25.35 96.6049 25.7333 98.0383 26.5C99.4716 27.2333 100.605 28.3 101.438 29.7C102.272 31.1 102.688 32.7667 102.688 34.7V50H96.1383ZM117.048 50.5C114.514 50.5 112.264 49.9667 110.298 48.9C108.331 47.8 106.764 46.3 105.598 44.4C104.464 42.5 103.898 40.3333 103.898 37.9C103.898 35.5 104.448 33.3667 105.548 31.5C106.681 29.6 108.214 28.1 110.148 27C112.081 25.8667 114.231 25.3 116.598 25.3C118.931 25.3 120.981 25.8333 122.748 26.9C124.548 27.9333 125.948 29.3667 126.948 31.2C127.981 33 128.498 35.05 128.498 37.35C128.498 37.7833 128.464 38.2333 128.398 38.7C128.364 39.1333 128.281 39.6333 128.148 40.2L107.848 40.25V35.35L125.098 35.3L122.448 37.35C122.381 35.9167 122.114 34.7167 121.648 33.75C121.214 32.7833 120.564 32.05 119.698 31.55C118.864 31.0167 117.831 30.75 116.598 30.75C115.298 30.75 114.164 31.05 113.198 31.65C112.231 32.2167 111.481 33.0333 110.948 34.1C110.448 35.1333 110.198 36.3667 110.198 37.8C110.198 39.2667 110.464 40.55 110.998 41.65C111.564 42.7167 112.364 43.55 113.398 44.15C114.431 44.7167 115.631 45 116.998 45C118.231 45 119.348 44.8 120.348 44.4C121.348 43.9667 122.214 43.3333 122.948 42.5L126.798 46.35C125.631 47.7167 124.198 48.75 122.498 49.45C120.831 50.15 119.014 50.5 117.048 50.5ZM133.061 50V15.8H139.611V50H133.061ZM127.411 31.6V25.85H145.261V31.6H127.411ZM162.695 50V36.15C162.695 34.7167 162.245 33.55 161.345 32.65C160.445 31.75 159.278 31.3 157.845 31.3C156.912 31.3 156.078 31.5 155.345 31.9C154.612 32.3 154.028 32.8667 153.595 33.6C153.195 34.3333 152.995 35.1833 152.995 36.15L150.445 34.85C150.445 32.95 150.845 31.3 151.645 29.9C152.445 28.4667 153.545 27.35 154.945 26.55C156.378 25.75 158.012 25.35 159.845 25.35C161.678 25.35 163.295 25.75 164.695 26.55C166.128 27.35 167.245 28.45 168.045 29.85C168.845 31.25 169.245 32.8667 169.245 34.7V50H162.695ZM146.445 50V13.85H152.995V50H146.445ZM172.021 50V25.85H178.621V50H172.021ZM175.321 21.95C174.254 21.95 173.371 21.6 172.671 20.9C171.971 20.1667 171.621 19.2667 171.621 18.2C171.621 17.1667 171.971 16.2833 172.671 15.55C173.371 14.8167 174.254 14.45 175.321 14.45C176.421 14.45 177.304 14.8167 177.971 15.55C178.671 16.2833 179.021 17.1667 179.021 18.2C179.021 19.2667 178.671 20.1667 177.971 20.9C177.304 21.6 176.421 21.95 175.321 21.95ZM198.173 50V36.15C198.173 34.7167 197.723 33.55 196.823 32.65C195.923 31.75 194.757 31.3 193.323 31.3C192.39 31.3 191.557 31.5 190.823 31.9C190.09 32.3 189.507 32.8667 189.073 33.6C188.673 34.3333 188.473 35.1833 188.473 36.15L185.923 34.85C185.923 32.95 186.323 31.3 187.123 29.9C187.957 28.4667 189.09 27.35 190.523 26.55C191.99 25.75 193.64 25.35 195.473 25.35C197.24 25.35 198.823 25.8 200.223 26.7C201.623 27.5667 202.723 28.7167 203.523 30.15C204.323 31.55 204.723 33.0667 204.723 34.7V50H198.173ZM181.923 50V25.85H188.473V50H181.923ZM217.6 60.7C215.033 60.7 212.766 60.2333 210.8 59.3C208.833 58.4 207.266 57.1167 206.1 55.45L210.25 51.3C211.183 52.4 212.216 53.2333 213.35 53.8C214.516 54.4 215.916 54.7 217.55 54.7C219.583 54.7 221.183 54.1833 222.35 53.15C223.55 52.1167 224.15 50.6833 224.15 48.85V42.8L225.25 37.5L224.2 32.2V25.85H230.7V48.75C230.7 51.15 230.133 53.2333 229 55C227.9 56.8 226.366 58.2 224.4 59.2C222.433 60.2 220.166 60.7 217.6 60.7ZM217.3 49.35C215.133 49.35 213.183 48.8333 211.45 47.8C209.716 46.7333 208.35 45.2833 207.35 43.45C206.383 41.6167 205.9 39.5667 205.9 37.3C205.9 35.0333 206.383 33 207.35 31.2C208.35 29.4 209.716 27.9833 211.45 26.95C213.183 25.8833 215.133 25.35 217.3 25.35C219.1 25.35 220.683 25.7 222.05 26.4C223.45 27.1 224.55 28.0667 225.35 29.3C226.15 30.5 226.583 31.9167 226.65 33.55V41.15C226.583 42.75 226.133 44.1833 225.3 45.45C224.5 46.6833 223.4 47.65 222 48.35C220.633 49.0167 219.066 49.35 217.3 49.35ZM218.6 43.4C219.8 43.4 220.833 43.15 221.7 42.65C222.6 42.1167 223.3 41.4 223.8 40.5C224.3 39.5667 224.55 38.5167 224.55 37.35C224.55 36.15 224.3 35.1 223.8 34.2C223.3 33.3 222.6 32.6 221.7 32.1C220.833 31.5667 219.8 31.3 218.6 31.3C217.4 31.3 216.35 31.5667 215.45 32.1C214.55 32.6 213.85 33.3167 213.35 34.25C212.85 35.15 212.6 36.1833 212.6 37.35C212.6 38.4833 212.85 39.5167 213.35 40.45C213.85 41.35 214.55 42.0667 215.45 42.6C216.35 43.1333 217.4 43.4 218.6 43.4ZM238.455 50.5C237.255 50.5 236.271 50.1 235.505 49.3C234.738 48.5 234.355 47.5167 234.355 46.35C234.355 45.1833 234.738 44.2 235.505 43.4C236.271 42.6 237.255 42.2 238.455 42.2C239.621 42.2 240.588 42.6 241.355 43.4C242.121 44.2 242.505 45.1833 242.505 46.35C242.505 47.5167 242.121 48.5 241.355 49.3C240.588 50.1 239.621 50.5 238.455 50.5ZM250.701 50.5C249.501 50.5 248.517 50.1 247.751 49.3C246.984 48.5 246.601 47.5167 246.601 46.35C246.601 45.1833 246.984 44.2 247.751 43.4C248.517 42.6 249.501 42.2 250.701 42.2C251.867 42.2 252.834 42.6 253.601 43.4C254.367 44.2 254.751 45.1833 254.751 46.35C254.751 47.5167 254.367 48.5 253.601 49.3C252.834 50.1 251.867 50.5 250.701 50.5ZM262.947 50.5C261.747 50.5 260.764 50.1 259.997 49.3C259.23 48.5 258.847 47.5167 258.847 46.35C258.847 45.1833 259.23 44.2 259.997 43.4C260.764 42.6 261.747 42.2 262.947 42.2C264.114 42.2 265.08 42.6 265.847 43.4C266.614 44.2 266.997 45.1833 266.997 46.35C266.997 47.5167 266.614 48.5 265.847 49.3C265.08 50.1 264.114 50.5 262.947 50.5Z" fill="black"/>
</svg>
