<svg width="1677" height="309" viewBox="0 0 1677 309" fill="none" xmlns="http://www.w3.org/2000/svg">
<path d="M2 305.5L838.5 4L1675 305.5" stroke="black" stroke-width="7"/>
<path d="M790.162 97V62H794.162L808.712 85.95H806.112L820.662 62H824.662V97H818.912V72.1L820.212 72.45L809.412 90.2H805.412L794.612 72.45L795.912 72.1V97H790.162ZM845.852 97.5C843.352 97.5 841.019 97.0333 838.852 96.1C836.685 95.1667 834.785 93.8833 833.152 92.25C831.519 90.5833 830.235 88.6667 829.302 86.5C828.402 84.3 827.952 81.95 827.952 79.45C827.952 76.95 828.402 74.6167 829.302 72.45C830.235 70.2833 831.502 68.3833 833.102 66.75C834.735 65.0833 836.619 63.8 838.752 62.9C840.919 61.9667 843.252 61.5 845.752 61.5C848.252 61.5 850.569 61.9667 852.702 62.9C854.869 63.8 856.769 65.0833 858.402 66.75C860.035 68.3833 861.302 70.3 862.202 72.5C863.135 74.6667 863.602 77 863.602 79.5C863.602 82 863.135 84.35 862.202 86.55C861.302 88.7167 860.035 90.6167 858.402 92.25C856.802 93.8833 854.919 95.1667 852.752 96.1C850.619 97.0333 848.319 97.5 845.852 97.5ZM845.752 92C848.119 92 850.185 91.4667 851.952 90.4C853.752 89.3333 855.152 87.8667 856.152 86C857.185 84.1 857.702 81.9167 857.702 79.45C857.702 77.6167 857.402 75.95 856.802 74.45C856.235 72.9167 855.419 71.6 854.352 70.5C853.285 69.3667 852.019 68.5 850.552 67.9C849.119 67.3 847.519 67 845.752 67C843.419 67 841.352 67.5333 839.552 68.6C837.785 69.6333 836.385 71.0833 835.352 72.95C834.352 74.8167 833.852 76.9833 833.852 79.45C833.852 81.2833 834.135 82.9833 834.702 84.55C835.302 86.0833 836.119 87.4 837.152 88.5C838.219 89.6 839.485 90.4667 840.952 91.1C842.419 91.7 844.019 92 845.752 92ZM875.821 97.5C873.054 97.5 870.704 97 868.771 96C866.837 95 865.104 93.5333 863.571 91.6L867.471 87.7C868.437 89.1 869.587 90.2 870.921 91C872.254 91.7667 873.954 92.15 876.021 92.15C877.954 92.15 879.487 91.75 880.621 90.95C881.787 90.15 882.371 89.05 882.371 87.65C882.371 86.4833 882.071 85.5333 881.471 84.8C880.871 84.0667 880.071 83.4667 879.071 83C878.104 82.5 877.021 82.0667 875.821 81.7C874.654 81.3 873.471 80.8667 872.271 80.4C871.104 79.9 870.021 79.2833 869.021 78.55C868.054 77.8167 867.271 76.8667 866.671 75.7C866.071 74.5333 865.771 73.05 865.771 71.25C865.771 69.1833 866.271 67.4333 867.271 66C868.304 64.5333 869.687 63.4167 871.421 62.65C873.154 61.8833 875.087 61.5 877.221 61.5C879.521 61.5 881.571 61.95 883.371 62.85C885.204 63.75 886.687 64.9 887.821 66.3L883.921 70.2C882.921 69.0667 881.871 68.2333 880.771 67.7C879.704 67.1333 878.471 66.85 877.071 66.85C875.337 66.85 873.971 67.2 872.971 67.9C872.004 68.6 871.521 69.5833 871.521 70.85C871.521 71.9167 871.821 72.7833 872.421 73.45C873.021 74.0833 873.804 74.6333 874.771 75.1C875.771 75.5333 876.854 75.95 878.021 76.35C879.221 76.75 880.404 77.2 881.571 77.7C882.771 78.2 883.854 78.85 884.821 79.65C885.821 80.4167 886.621 81.4167 887.221 82.65C887.821 83.8833 888.121 85.4333 888.121 87.3C888.121 90.4333 887.004 92.9167 884.771 94.75C882.571 96.5833 879.587 97.5 875.821 97.5ZM894.304 97.5C893.237 97.5 892.354 97.15 891.654 96.45C890.987 95.7167 890.654 94.8333 890.654 93.8C890.654 92.7333 890.987 91.85 891.654 91.15C892.354 90.45 893.237 90.1 894.304 90.1C895.37 90.1 896.237 90.45 896.904 91.15C897.604 91.85 897.954 92.7333 897.954 93.8C897.954 94.8333 897.604 95.7167 896.904 96.45C896.237 97.15 895.37 97.5 894.304 97.5ZM894.304 82.05C893.237 82.05 892.354 81.7 891.654 81C890.987 80.2667 890.654 79.3833 890.654 78.35C890.654 77.2833 890.987 76.4 891.654 75.7C892.354 75 893.237 74.65 894.304 74.65C895.37 74.65 896.237 75 896.904 75.7C897.604 76.4 897.954 77.2833 897.954 78.35C897.954 79.3833 897.604 80.2667 896.904 81C896.237 81.7 895.37 82.05 894.304 82.05ZM624.611 160V125H628.611L643.161 148.95H640.561L655.111 125H659.111V160H653.361V135.1L654.661 135.45L643.861 153.2H639.861L629.061 135.45L630.361 135.1V160H624.611ZM663.5 160V136H669V160H663.5ZM666.25 131.6C665.317 131.6 664.534 131.283 663.9 130.65C663.3 130.017 663 129.233 663 128.3C663 127.367 663.3 126.583 663.9 125.95C664.534 125.317 665.317 125 666.25 125C667.217 125 668 125.317 668.6 125.95C669.2 126.583 669.5 127.367 669.5 128.3C669.5 129.233 669.2 130.017 668.6 130.65C668 131.283 667.217 131.6 666.25 131.6ZM682.719 160.5C680.552 160.5 678.586 159.95 676.819 158.85C675.086 157.75 673.702 156.267 672.669 154.4C671.669 152.5 671.169 150.383 671.169 148.05C671.169 145.683 671.669 143.567 672.669 141.7C673.702 139.8 675.086 138.3 676.819 137.2C678.586 136.067 680.552 135.5 682.719 135.5C684.552 135.5 686.169 135.9 687.569 136.7C689.002 137.467 690.136 138.533 690.969 139.9C691.802 141.267 692.219 142.817 692.219 144.55V151.45C692.219 153.183 691.802 154.733 690.969 156.1C690.169 157.467 689.052 158.55 687.619 159.35C686.186 160.117 684.552 160.5 682.719 160.5ZM683.619 155.3C684.986 155.3 686.169 155 687.169 154.4C688.202 153.767 689.002 152.9 689.569 151.8C690.136 150.7 690.419 149.433 690.419 148C690.419 146.567 690.136 145.3 689.569 144.2C689.002 143.1 688.202 142.25 687.169 141.65C686.169 141.017 685.002 140.7 683.669 140.7C682.302 140.7 681.102 141.017 680.069 141.65C679.069 142.25 678.269 143.1 677.669 144.2C677.102 145.3 676.819 146.567 676.819 148C676.819 149.433 677.102 150.7 677.669 151.8C678.269 152.9 679.069 153.767 680.069 154.4C681.102 155 682.286 155.3 683.619 155.3ZM695.569 160H690.069V153.55L691.019 147.7L690.069 141.9V124H695.569V160ZM709.223 160.5C707.056 160.5 705.09 159.95 703.323 158.85C701.59 157.75 700.206 156.267 699.173 154.4C698.173 152.5 697.673 150.383 697.673 148.05C697.673 145.683 698.173 143.567 699.173 141.7C700.206 139.8 701.59 138.3 703.323 137.2C705.09 136.067 707.056 135.5 709.223 135.5C711.056 135.5 712.673 135.9 714.073 136.7C715.506 137.467 716.64 138.533 717.473 139.9C718.306 141.267 718.723 142.817 718.723 144.55V151.45C718.723 153.183 718.306 154.733 717.473 156.1C716.673 157.467 715.556 158.55 714.123 159.35C712.69 160.117 711.056 160.5 709.223 160.5ZM710.123 155.3C711.49 155.3 712.673 155 713.673 154.4C714.706 153.767 715.506 152.9 716.073 151.8C716.64 150.7 716.923 149.433 716.923 148C716.923 146.567 716.64 145.3 716.073 144.2C715.506 143.1 714.706 142.25 713.673 141.65C712.673 141.017 711.506 140.7 710.173 140.7C708.806 140.7 707.606 141.017 706.573 141.65C705.573 142.25 704.773 143.1 704.173 144.2C703.606 145.3 703.323 146.567 703.323 148C703.323 149.433 703.606 150.7 704.173 151.8C704.773 152.9 705.573 153.767 706.573 154.4C707.606 155 708.79 155.3 710.123 155.3ZM722.073 160H716.573V153.55L717.523 147.7L716.573 141.9V124H722.073V160ZM725.677 160V124H731.177V160H725.677ZM745.948 160.5C743.548 160.5 741.381 159.967 739.448 158.9C737.548 157.8 736.031 156.3 734.898 154.4C733.798 152.5 733.248 150.367 733.248 148C733.248 145.633 733.798 143.517 734.898 141.65C735.998 139.75 737.481 138.25 739.348 137.15C741.248 136.05 743.348 135.5 745.648 135.5C747.881 135.5 749.848 136.017 751.548 137.05C753.281 138.083 754.631 139.5 755.598 141.3C756.598 143.1 757.098 145.15 757.098 147.45C757.098 147.85 757.065 148.267 756.998 148.7C756.965 149.1 756.898 149.55 756.798 150.05H737.098V145.55H753.948L751.898 147.35C751.831 145.883 751.548 144.65 751.048 143.65C750.548 142.65 749.831 141.883 748.898 141.35C747.998 140.817 746.881 140.55 745.548 140.55C744.148 140.55 742.931 140.85 741.898 141.45C740.865 142.05 740.065 142.9 739.498 144C738.931 145.067 738.648 146.35 738.648 147.85C738.648 149.35 738.948 150.667 739.548 151.8C740.148 152.933 740.998 153.817 742.098 154.45C743.198 155.05 744.465 155.35 745.898 155.35C747.131 155.35 748.265 155.133 749.298 154.7C750.365 154.267 751.265 153.633 751.998 152.8L755.498 156.35C754.331 157.717 752.915 158.75 751.248 159.45C749.581 160.15 747.815 160.5 745.948 160.5ZM783.367 160.5C780.867 160.5 778.533 160.033 776.367 159.1C774.2 158.167 772.3 156.883 770.667 155.25C769.033 153.583 767.75 151.667 766.817 149.5C765.917 147.3 765.467 144.95 765.467 142.45C765.467 139.95 765.917 137.617 766.817 135.45C767.75 133.283 769.017 131.383 770.617 129.75C772.25 128.083 774.133 126.8 776.267 125.9C778.433 124.967 780.767 124.5 783.267 124.5C785.767 124.5 788.083 124.967 790.217 125.9C792.383 126.8 794.283 128.083 795.917 129.75C797.55 131.383 798.817 133.3 799.717 135.5C800.65 137.667 801.117 140 801.117 142.5C801.117 145 800.65 147.35 799.717 149.55C798.817 151.717 797.55 153.617 795.917 155.25C794.317 156.883 792.433 158.167 790.267 159.1C788.133 160.033 785.833 160.5 783.367 160.5ZM783.267 155C785.633 155 787.7 154.467 789.467 153.4C791.267 152.333 792.667 150.867 793.667 149C794.7 147.1 795.217 144.917 795.217 142.45C795.217 140.617 794.917 138.95 794.317 137.45C793.75 135.917 792.933 134.6 791.867 133.5C790.8 132.367 789.533 131.5 788.067 130.9C786.633 130.3 785.033 130 783.267 130C780.933 130 778.867 130.533 777.067 131.6C775.3 132.633 773.9 134.083 772.867 135.95C771.867 137.817 771.367 139.983 771.367 142.45C771.367 144.283 771.65 145.983 772.217 147.55C772.817 149.083 773.633 150.4 774.667 151.5C775.733 152.6 777 153.467 778.467 154.1C779.933 154.7 781.533 155 783.267 155ZM807.014 160V132.85C807.014 131.017 807.414 129.4 808.214 128C809.047 126.6 810.181 125.5 811.614 124.7C813.081 123.9 814.764 123.5 816.664 123.5C818.131 123.5 819.381 123.75 820.414 124.25C821.447 124.75 822.414 125.467 823.314 126.4L819.764 129.95C819.364 129.55 818.931 129.233 818.464 129C817.997 128.767 817.397 128.65 816.664 128.65C815.331 128.65 814.297 129.017 813.564 129.75C812.864 130.45 812.514 131.467 812.514 132.8V160H807.014ZM801.264 141V136H819.764V141H801.264ZM832.54 160V126H838.04V160H832.54ZM826.79 141V136H843.79V141H826.79ZM861.736 160V146.15C861.736 144.55 861.22 143.233 860.186 142.2C859.186 141.167 857.886 140.65 856.286 140.65C855.22 140.65 854.27 140.883 853.436 141.35C852.603 141.817 851.953 142.467 851.486 143.3C851.02 144.133 850.786 145.083 850.786 146.15L848.636 144.95C848.636 143.117 849.036 141.5 849.836 140.1C850.636 138.667 851.736 137.55 853.136 136.75C854.57 135.917 856.17 135.5 857.936 135.5C859.736 135.5 861.336 135.9 862.736 136.7C864.136 137.5 865.236 138.617 866.036 140.05C866.836 141.45 867.236 143.083 867.236 144.95V160H861.736ZM845.286 160V124H850.786V160H845.286ZM881.475 160.5C879.075 160.5 876.909 159.967 874.975 158.9C873.075 157.8 871.559 156.3 870.425 154.4C869.325 152.5 868.775 150.367 868.775 148C868.775 145.633 869.325 143.517 870.425 141.65C871.525 139.75 873.009 138.25 874.875 137.15C876.775 136.05 878.875 135.5 881.175 135.5C883.409 135.5 885.375 136.017 887.075 137.05C888.809 138.083 890.159 139.5 891.125 141.3C892.125 143.1 892.625 145.15 892.625 147.45C892.625 147.85 892.592 148.267 892.525 148.7C892.492 149.1 892.425 149.55 892.325 150.05H872.625V145.55H889.475L887.425 147.35C887.359 145.883 887.075 144.65 886.575 143.65C886.075 142.65 885.359 141.883 884.425 141.35C883.525 140.817 882.409 140.55 881.075 140.55C879.675 140.55 878.459 140.85 877.425 141.45C876.392 142.05 875.592 142.9 875.025 144C874.459 145.067 874.175 146.35 874.175 147.85C874.175 149.35 874.475 150.667 875.075 151.8C875.675 152.933 876.525 153.817 877.625 154.45C878.725 155.05 879.992 155.35 881.425 155.35C882.659 155.35 883.792 155.133 884.825 154.7C885.892 154.267 886.792 153.633 887.525 152.8L891.025 156.35C889.859 157.717 888.442 158.75 886.775 159.45C885.109 160.15 883.342 160.5 881.475 160.5ZM912.544 160.5C909.777 160.5 907.427 160 905.494 159C903.561 158 901.827 156.533 900.294 154.6L904.194 150.7C905.161 152.1 906.311 153.2 907.644 154C908.977 154.767 910.677 155.15 912.744 155.15C914.677 155.15 916.211 154.75 917.344 153.95C918.511 153.15 919.094 152.05 919.094 150.65C919.094 149.483 918.794 148.533 918.194 147.8C917.594 147.067 916.794 146.467 915.794 146C914.827 145.5 913.744 145.067 912.544 144.7C911.377 144.3 910.194 143.867 908.994 143.4C907.827 142.9 906.744 142.283 905.744 141.55C904.777 140.817 903.994 139.867 903.394 138.7C902.794 137.533 902.494 136.05 902.494 134.25C902.494 132.183 902.994 130.433 903.994 129C905.027 127.533 906.411 126.417 908.144 125.65C909.877 124.883 911.811 124.5 913.944 124.5C916.244 124.5 918.294 124.95 920.094 125.85C921.927 126.75 923.411 127.9 924.544 129.3L920.644 133.2C919.644 132.067 918.594 131.233 917.494 130.7C916.427 130.133 915.194 129.85 913.794 129.85C912.061 129.85 910.694 130.2 909.694 130.9C908.727 131.6 908.244 132.583 908.244 133.85C908.244 134.917 908.544 135.783 909.144 136.45C909.744 137.083 910.527 137.633 911.494 138.1C912.494 138.533 913.577 138.95 914.744 139.35C915.944 139.75 917.127 140.2 918.294 140.7C919.494 141.2 920.577 141.85 921.544 142.65C922.544 143.417 923.344 144.417 923.944 145.65C924.544 146.883 924.844 148.433 924.844 150.3C924.844 153.433 923.727 155.917 921.494 157.75C919.294 159.583 916.311 160.5 912.544 160.5ZM937.177 160.5C935.144 160.5 933.327 160.05 931.727 159.15C930.161 158.25 928.927 157.017 928.027 155.45C927.161 153.85 926.727 152.017 926.727 149.95V136H932.227V149.7C932.227 150.867 932.411 151.867 932.777 152.7C933.177 153.5 933.744 154.117 934.477 154.55C935.244 154.983 936.144 155.2 937.177 155.2C938.777 155.2 939.994 154.733 940.827 153.8C941.694 152.833 942.127 151.467 942.127 149.7V136H947.627V149.95C947.627 152.05 947.177 153.9 946.277 155.5C945.411 157.067 944.194 158.3 942.627 159.2C941.061 160.067 939.244 160.5 937.177 160.5ZM950.657 160V136H956.157V160H950.657ZM966.607 160V145.7C966.607 144.1 966.107 142.867 965.107 142C964.107 141.1 962.874 140.65 961.407 140.65C960.407 140.65 959.507 140.85 958.707 141.25C957.941 141.65 957.324 142.233 956.857 143C956.391 143.733 956.157 144.633 956.157 145.7L954.007 144.5C954.007 142.667 954.407 141.083 955.207 139.75C956.007 138.417 957.091 137.383 958.457 136.65C959.824 135.883 961.357 135.5 963.057 135.5C964.757 135.5 966.291 135.867 967.657 136.6C969.024 137.333 970.107 138.367 970.907 139.7C971.707 141.033 972.107 142.633 972.107 144.5V160H966.607ZM982.557 160V145.7C982.557 144.1 982.057 142.867 981.057 142C980.057 141.1 978.824 140.65 977.357 140.65C976.391 140.65 975.507 140.85 974.707 141.25C973.907 141.65 973.274 142.233 972.807 143C972.341 143.733 972.107 144.633 972.107 145.7L969.007 144.5C969.174 142.667 969.707 141.083 970.607 139.75C971.507 138.417 972.657 137.383 974.057 136.65C975.491 135.883 977.057 135.5 978.757 135.5C980.491 135.5 982.057 135.867 983.457 136.6C984.857 137.333 985.974 138.367 986.807 139.7C987.641 141.033 988.057 142.633 988.057 144.5V160H982.557ZM991.224 160V136H996.724V160H991.224ZM1007.17 160V145.7C1007.17 144.1 1006.67 142.867 1005.67 142C1004.67 141.1 1003.44 140.65 1001.97 140.65C1000.97 140.65 1000.07 140.85 999.274 141.25C998.507 141.65 997.89 142.233 997.424 143C996.957 143.733 996.724 144.633 996.724 145.7L994.574 144.5C994.574 142.667 994.974 141.083 995.774 139.75C996.574 138.417 997.657 137.383 999.024 136.65C1000.39 135.883 1001.92 135.5 1003.62 135.5C1005.32 135.5 1006.86 135.867 1008.22 136.6C1009.59 137.333 1010.67 138.367 1011.47 139.7C1012.27 141.033 1012.67 142.633 1012.67 144.5V160H1007.17ZM1023.12 160V145.7C1023.12 144.1 1022.62 142.867 1021.62 142C1020.62 141.1 1019.39 140.65 1017.92 140.65C1016.96 140.65 1016.07 140.85 1015.27 141.25C1014.47 141.65 1013.84 142.233 1013.37 143C1012.91 143.733 1012.67 144.633 1012.67 145.7L1009.57 144.5C1009.74 142.667 1010.27 141.083 1011.17 139.75C1012.07 138.417 1013.22 137.383 1014.62 136.65C1016.06 135.883 1017.62 135.5 1019.32 135.5C1021.06 135.5 1022.62 135.867 1024.02 136.6C1025.42 137.333 1026.54 138.367 1027.37 139.7C1028.21 141.033 1028.62 142.633 1028.62 144.5V160H1023.12ZM1042.94 160.5C1040.54 160.5 1038.37 159.967 1036.44 158.9C1034.54 157.8 1033.02 156.3 1031.89 154.4C1030.79 152.5 1030.24 150.367 1030.24 148C1030.24 145.633 1030.79 143.517 1031.89 141.65C1032.99 139.75 1034.47 138.25 1036.34 137.15C1038.24 136.05 1040.34 135.5 1042.64 135.5C1044.87 135.5 1046.84 136.017 1048.54 137.05C1050.27 138.083 1051.62 139.5 1052.59 141.3C1053.59 143.1 1054.09 145.15 1054.09 147.45C1054.09 147.85 1054.06 148.267 1053.99 148.7C1053.96 149.1 1053.89 149.55 1053.79 150.05H1034.09V145.55H1050.94L1048.89 147.35C1048.82 145.883 1048.54 144.65 1048.04 143.65C1047.54 142.65 1046.82 141.883 1045.89 141.35C1044.99 140.817 1043.87 140.55 1042.54 140.55C1041.14 140.55 1039.92 140.85 1038.89 141.45C1037.86 142.05 1037.06 142.9 1036.49 144C1035.92 145.067 1035.64 146.35 1035.64 147.85C1035.64 149.35 1035.94 150.667 1036.54 151.8C1037.14 152.933 1037.99 153.817 1039.09 154.45C1040.19 155.05 1041.46 155.35 1042.89 155.35C1044.12 155.35 1045.26 155.133 1046.29 154.7C1047.36 154.267 1048.26 153.633 1048.99 152.8L1052.49 156.35C1051.32 157.717 1049.91 158.75 1048.24 159.45C1046.57 160.15 1044.81 160.5 1042.94 160.5ZM1056 160V136H1061.5V160H1056ZM1061.5 146.65L1059.6 145.7C1059.6 142.667 1060.27 140.217 1061.6 138.35C1062.97 136.45 1065.02 135.5 1067.75 135.5C1068.95 135.5 1070.03 135.717 1071 136.15C1071.97 136.583 1072.87 137.283 1073.7 138.25L1070.1 141.95C1069.67 141.483 1069.18 141.15 1068.65 140.95C1068.12 140.75 1067.5 140.65 1066.8 140.65C1065.27 140.65 1064 141.133 1063 142.1C1062 143.067 1061.5 144.583 1061.5 146.65Z" fill="black"/>
</svg>
